<?xml version="1.0" standalone="no"?>
<!DOCTYPE svg PUBLIC "-//W3C//DTD SVG 20010904//EN"
 "http://www.w3.org/TR/2001/REC-SVG-20010904/DTD/svg10.dtd">
<svg version="1.0" xmlns="http://www.w3.org/2000/svg"
 width="1408.000000pt" height="672.000000pt" viewBox="0 0 1408.000000 672.000000"
 preserveAspectRatio="xMidYMid meet">

<g transform="translate(0.000000,672.000000) scale(0.100000,-0.100000)"
fill="#000000" stroke="none">
<path d="M0 3503 c0 -1769 2 -3214 4 -3212 2 2 68 229 146 504 78 275 227 799
332 1165 104 366 204 719 223 785 35 127 345 1234 520 1860 57 204 127 449
155 545 110 378 440 1548 440 1560 0 7 -315 10 -910 10 l-910 0 0 -3217z
m1035 1105 c75 -66 83 -76 84 -110 1 -21 -5 -42 -11 -48 -46 -37 -163 -120
-170 -120 -5 0 -8 42 -7 93 l2 92 -77 3 -76 3 0 79 0 80 86 0 85 0 84 -72z"/>
<path d="M11307 6708 c6 -7 95 -125 200 -263 104 -137 224 -294 266 -348 42
-54 79 -108 81 -120 3 -12 8 -84 12 -160 3 -75 9 -139 13 -141 3 -2 40 -9 81
-15 41 -6 91 -13 110 -16 l35 -5 -30 14 c-16 7 -35 12 -41 9 -34 -13 -36 32
-29 531 4 270 9 499 11 509 5 16 -17 17 -357 17 -288 0 -359 -3 -352 -12z"/>
<path d="M12154 6608 c-4 -6 -11 -226 -16 -487 -5 -262 -13 -477 -17 -479 -5
-2 2 -15 15 -30 12 -15 94 -117 182 -227 221 -277 326 -399 344 -403 9 -2 19
6 23 17 9 28 113 186 177 268 127 164 213 259 329 363 183 165 327 309 341
341 7 15 15 26 19 23 4 -2 3 11 -1 28 -5 18 -13 72 -19 121 -14 120 -56 199
-161 301 -43 43 -80 87 -82 98 -2 14 -13 24 -31 29 -15 4 -141 12 -280 18
-139 6 -333 16 -432 21 -251 13 -382 13 -391 -2z m480 -374 c11 -28 7 -33 -59
-69 -36 -20 -67 -41 -70 -46 -4 -5 24 -28 60 -50 45 -28 64 -47 61 -56 -4 -8
-6 -18 -6 -23 0 -16 -63 9 -154 62 -93 53 -109 66 -99 81 8 13 224 117 243
117 10 0 21 -7 24 -16z m413 -36 c123 -61 133 -70 95 -89 -15 -7 -67 -36 -116
-63 l-89 -50 -19 24 c-22 27 -24 25 57 73 26 15 45 33 42 40 -2 6 -27 26 -55
42 -38 22 -52 36 -52 53 0 33 20 28 137 -30z m-233 26 c14 -14 13 -21 -15 -75
l-31 -59 33 -51 c26 -41 30 -52 18 -60 -23 -14 -26 -12 -78 53 -50 61 -50 61
-34 92 25 48 73 116 83 116 5 0 16 -7 24 -16z"/>
<path d="M2858 6603 c12 -2 32 -2 45 0 12 2 2 4 -23 4 -25 0 -35 -2 -22 -4z"/>
<path d="M2978 6603 c28 -2 76 -2 105 0 28 2 5 3 -53 3 -58 0 -81 -1 -52 -3z"/>
<path d="M4475 6296 c-96 -44 -132 -168 -80 -273 72 -143 244 -160 358 -34 48
54 64 111 45 171 -17 54 -66 93 -113 88 -23 -2 -36 4 -56 26 -20 23 -36 29
-75 32 -29 3 -61 -1 -79 -10z"/>
<path d="M3517 6293 c18 -2 50 -2 70 0 21 2 7 4 -32 4 -38 0 -55 -2 -38 -4z"/>
<path d="M13544 5945 c4 -16 7 -41 7 -53 -1 -13 3 -31 9 -40 7 -13 9 -2 10 39
0 41 -5 60 -17 70 -15 13 -16 11 -9 -16z"/>
<path d="M13535 5819 c-10 -15 3 -25 16 -12 7 7 7 13 1 17 -6 3 -14 1 -17 -5z"/>
<path d="M13459 5693 c-13 -16 -12 -17 4 -4 9 7 17 15 17 17 0 8 -8 3 -21 -13z"/>
<path d="M3272 5653 l-312 -3 2 -286 3 -287 385 2 c211 1 386 4 388 6 6 6 2
557 -4 567 -3 4 -38 7 -77 6 -40 -2 -213 -4 -385 -5z m102 -199 c24 -9 20 -21
-31 -101 -48 -73 -69 -86 -93 -58 -14 16 -12 20 49 102 48 65 50 67 75 57z
m86 -26 l0 -33 23 29 c16 20 29 27 41 23 16 -6 16 -8 0 -32 -12 -19 -14 -28
-5 -39 14 -17 -8 -29 -29 -16 -8 5 -22 4 -33 -1 -44 -24 -61 15 -29 70 22 40
32 39 32 -1z m-327 -40 c4 -10 8 -10 15 1 6 8 17 11 26 8 12 -5 13 -12 5 -37
-12 -33 -24 -37 -53 -15 -11 8 -30 15 -42 15 -25 0 -39 14 -29 30 9 14 72 12
78 -2z"/>
<path d="M1990 3845 l0 -405 540 0 540 0 0 405 0 405 -540 0 -540 0 0 -405z
m180 145 l5 -175 53 -3 c43 -3 52 -6 52 -22 0 -24 -61 -43 -94 -30 -50 18 -56
46 -56 235 0 163 1 176 18 173 15 -3 18 -22 22 -178z m595 10 l0 -25 -252 -3
c-244 -2 -252 -2 -258 18 -3 11 -3 24 0 30 4 7 94 9 258 8 l252 -3 0 -25z m2
-136 c3 -9 0 -20 -8 -25 -20 -13 -466 -12 -474 1 -4 6 -4 17 -2 25 5 10 53 13
241 14 211 2 237 0 243 -15z m30 -150 c15 -11 36 -36 47 -55 17 -32 17 -37 3
-71 -19 -45 -70 -74 -112 -64 -15 4 -41 21 -58 37 -27 27 -29 35 -25 79 l5 50
-163 0 c-163 0 -182 4 -170 36 5 13 37 15 225 12 204 -3 222 -4 248 -24z"/>
<path d="M2714 3656 c-3 -8 -4 -25 -2 -38 2 -19 9 -23 38 -23 29 0 36 4 38 23
2 13 -2 30 -8 38 -16 18 -59 18 -66 0z"/>
<path d="M11690 3679 c-61 -27 -106 -73 -143 -144 -41 -80 -44 -182 -8 -263
29 -65 107 -137 164 -153 67 -18 173 -7 235 25 95 48 202 167 202 223 0 35
-18 63 -40 63 -15 0 -29 19 -54 73 -44 91 -88 152 -129 177 -45 28 -165 27
-227 -1z m226 -110 c29 -81 7 -175 -54 -233 -46 -43 -57 -24 -20 35 24 40 31
62 31 103 0 29 -5 61 -11 72 -9 16 -8 26 4 43 20 29 35 23 50 -20z m-132 -30
c31 -37 33 -77 6 -111 -32 -41 -54 -40 -95 2 -43 44 -41 75 7 115 38 32 51 32
82 -6z m-144 -59 c-19 -12 -35 3 -26 26 6 17 8 17 24 0 15 -15 15 -18 2 -26z
m-56 -43 c4 -19 3 -26 -4 -22 -5 3 -10 18 -10 32 0 32 5 28 14 -10z m33 -72
c12 -19 18 -35 13 -35 -10 0 -50 49 -50 61 0 18 16 7 37 -26z"/>
<path d="M11763 3534 c28 -34 22 -70 -14 -83 -18 -6 -29 -16 -27 -23 7 -21 35
-21 57 1 30 30 27 72 -6 102 -20 17 -23 18 -10 3z"/>
<path d="M13216 3592 c-5 -9 -153 -542 -382 -1382 -68 -250 -127 -461 -132
-469 -6 -11 -44 -13 -189 -12 l-181 2 -5 -23 c-4 -13 -9 -49 -13 -80 l-7 -57
262 -3 c219 -2 263 -5 271 -18 13 -20 13 -1000 0 -1034 -18 -48 -52 -56 -249
-56 l-180 0 -20 -67 c-11 -38 -39 -133 -61 -213 -23 -80 -43 -153 -46 -162 -5
-17 42 -18 895 -18 l901 0 0 1453 c0 1387 -1 1453 -18 1463 -21 14 -669 542
-757 619 -71 61 -82 68 -89 57z m-452 -1901 c21 -18 46 -71 46 -97 0 -23 -60
-11 -79 16 -17 26 -27 25 -34 -1 -4 -15 -11 -20 -22 -15 -9 3 -31 6 -49 6
l-33 0 10 55 10 54 51 3 c60 4 75 0 100 -21z"/>
<path d="M12700 1673 c0 -22 2 -25 10 -13 13 20 13 40 0 40 -5 0 -10 -12 -10
-27z"/>
<path d="M10118 2584 c-7 -15 -8 -135 -3 -358 l7 -335 32 -12 c22 -9 145 -14
429 -17 l397 -4 0 349 c-1 287 -3 351 -15 367 -14 18 -34 19 -342 23 -181 2
-366 5 -412 6 -78 3 -84 2 -93 -19z m753 -221 c2 -195 0 -285 -6 -292 -4 -3
-126 -6 -272 -6 -204 0 -267 3 -270 13 -4 9 53 12 260 12 l265 0 4 25 c3 13 3
27 0 30 -3 3 -77 5 -165 5 -122 0 -158 3 -155 13 4 9 47 13 161 15 l157 3 0
29 0 30 -82 1 c-415 6 -448 8 -448 24 0 13 36 15 265 15 l265 0 0 30 0 30
-257 2 c-236 3 -258 4 -261 21 -3 16 14 17 257 17 l261 0 0 30 0 30 -255 0
c-220 0 -255 2 -255 15 0 13 36 15 265 15 l265 0 1 -107z m-595 80 c13 -17 13
-17 14 0 0 21 16 23 23 3 3 -8 -1 -20 -9 -27 -20 -16 -66 4 -58 26 8 19 14 19
30 -2z m204 -263 c0 -5 7 -10 15 -10 18 0 20 -21 3 -38 -15 -15 -32 -16 -23
-2 4 6 -25 10 -79 10 -79 0 -86 2 -86 20 0 17 8 20 78 23 42 1 80 4 85 5 4 1
7 -2 7 -8z"/>
<path d="M1707 2510 c-31 -25 -41 -62 -27 -105 11 -35 53 -70 70 -60 6 3 10
16 10 27 0 12 20 41 47 66 l47 45 -28 24 c-34 29 -84 30 -119 3z"/>
<path d="M11530 1092 l0 -369 287 -6 c157 -4 436 -7 620 -7 l333 0 0 375 0
375 -620 0 -620 0 0 -368z m510 58 c14 -27 10 -33 -55 -69 -30 -17 -55 -35
-55 -39 0 -4 25 -21 55 -37 54 -30 61 -39 49 -69 -9 -22 -14 -21 -112 25 -48
23 -102 48 -119 55 -18 8 -33 20 -33 27 1 10 228 124 252 126 4 1 12 -8 18
-19z m383 -45 c63 -30 118 -58 121 -63 3 -5 -43 -32 -102 -59 -143 -67 -148
-69 -162 -43 -14 26 -14 25 56 65 l57 32 -62 42 c-33 23 -61 43 -61 46 0 14
14 35 25 35 6 0 64 -25 128 -55z m-224 -20 c17 -20 31 -39 31 -42 0 -12 -63
-73 -75 -73 -21 0 -45 34 -35 50 5 8 7 29 4 46 -4 25 -1 35 13 43 26 15 28 15
62 -24z"/>
<path d="M707 1188 c-4 -13 -9 -189 -12 -393 -3 -203 -8 -444 -10 -535 -2 -91
-4 -184 -5 -207 l0 -42 -52 -4 c-29 -2 382 -4 913 -5 l967 -2 6 187 c3 104 9
372 12 597 5 340 4 410 -7 417 -8 5 -417 9 -910 9 l-897 0 -5 -22z m1183 -389
c-6 -11 -37 -55 -69 -97 -31 -42 -110 -152 -174 -244 -65 -92 -128 -174 -140
-183 -28 -19 -87 -20 -87 -1 0 8 37 71 83 140 45 69 115 177 156 241 41 63 81
121 90 129 18 17 78 33 124 35 25 1 27 -1 17 -20z m-506 -41 c32 -46 22 -55
-187 -172 -26 -15 -45 -31 -42 -36 3 -5 44 -34 90 -64 47 -31 85 -60 85 -66 0
-6 -17 -29 -37 -51 l-38 -40 -75 57 c-41 32 -106 78 -145 102 -75 49 -89 62
-76 75 13 13 385 215 398 216 6 1 19 -9 27 -21z m691 -131 c88 -51 160 -96
160 -101 0 -8 -170 -105 -319 -182 -75 -39 -75 -39 -106 17 -12 21 1 32 123
103 53 31 97 62 97 69 0 7 -34 34 -76 61 -41 28 -77 53 -80 58 -6 9 23 68 34
68 4 0 79 -42 167 -93z"/>
<path d="M9715 802 c-71 -23 -148 -102 -169 -172 -22 -73 -20 -128 5 -196 71
-189 322 -236 452 -84 46 54 67 116 67 200 0 119 -75 223 -184 255 -63 19
-108 18 -171 -3z m124 -36 c20 -24 -13 -75 -48 -76 -11 0 -11 3 0 16 12 15 11
16 -6 11 -31 -10 -49 7 -41 37 5 22 12 26 45 26 21 0 44 -6 50 -14z"/>
</g>
</svg>
