<?xml version="1.0" encoding="UTF-8"?>
<svg version="1.1" xmlns="http://www.w3.org/2000/svg" width="498" height="501">
<path d="M0 0 C1.97742346 0.98689853 3.91691161 2.05156753 5.82421875 3.16796875 C6.93603516 3.81443359 8.04785156 4.46089844 9.19335938 5.12695312 C10.3581425 5.81368407 11.52285572 6.50053361 12.6875 7.1875 C13.82123047 7.84814453 14.95496094 8.50878906 16.12304688 9.18945312 C21.26829449 12.193566 26.39304808 15.22947101 31.49609375 18.3046875 C34.74988629 20.26329067 38.02181906 22.15239235 41.375 23.9375 C48.73669079 27.91510379 56.00312463 32.06755078 63.0625 36.5625 C66.00666423 38.4266503 69.01191753 40.12196277 72.078125 41.77734375 C77.64463886 44.79950784 83.17379843 47.88266983 88.6875 51 C89.6664624 51.55324951 90.6454248 52.10649902 91.65405273 52.67651367 C101.01185042 57.98038104 110.29922017 63.40226498 119.58203125 68.8359375 C125.03034828 72.02331134 130.50526721 75.16097725 135.9921875 78.28125 C138.96518474 79.98010556 141.92159942 81.70483833 144.875 83.4375 C149.49021883 86.14043693 154.1432397 88.76728751 158.8125 91.375 C173.28673395 99.47087535 173.28673395 99.47087535 179.93714046 103.832304 C182.00304662 105.09723786 182.00304662 105.09723786 184.5012064 105.78224373 C187.86987814 107.08899547 189.63777235 108.23216383 192 111 C194.08028454 117.75007143 193.39696213 125.32303508 193.34155273 132.30029297 C193.36001734 134.51480852 193.38269014 136.7292924 193.40925598 138.94372559 C193.46768465 144.95659184 193.46232402 150.96782934 193.44204974 156.98088598 C193.43076394 162.00091294 193.45022515 167.02062866 193.46959931 172.04061615 C193.5172885 184.56145463 193.50363219 197.08150704 193.46170289 209.60227789 C193.42715022 220.4674196 193.46763315 231.33073494 193.54434144 242.19561289 C193.62257422 253.36048025 193.65138394 264.52468683 193.62985379 275.68986619 C193.61818101 281.95489213 193.62525157 288.21844463 193.68014336 294.48327255 C193.72943967 300.37610709 193.71558643 306.26549347 193.65333366 312.15817261 C193.64095159 314.31885838 193.65067042 316.47980236 193.68425369 318.6402626 C193.9122462 334.53951467 193.9122462 334.53951467 190.73205876 338.63145876 C187.24601769 341.69630307 183.30554396 343.31397131 179 345 C177.21593789 345.9999732 175.44499961 347.02444561 173.69921875 348.08984375 C172.02998115 349.04140875 170.35939748 349.99061621 168.6875 350.9375 C167.79377686 351.44619629 166.90005371 351.95489258 165.97924805 352.47900391 C159.77998748 356.00358574 153.56251656 359.49534849 147.34033203 362.97924805 C142.91030187 365.46705671 138.54482303 368.04550902 134.203125 370.68359375 C132.09627827 371.94247203 129.96619035 373.13594694 127.8125 374.3125 C123.68184793 376.57887547 119.65510951 378.99883149 115.625 381.4375 C110.4555695 384.56021894 105.24587136 387.55694251 99.92578125 390.41796875 C91.14907112 395.16371989 82.46626759 400.07169341 73.9375 405.25 C67.71665883 409.02440544 61.40532253 412.62235775 55.0625 416.1875 C38.89977139 425.27693888 22.85751479 434.57869437 7.0234375 444.23046875 C-1.19188255 449.03865994 -1.19188255 449.03865994 -4.53125 448.87890625 C-7.42641732 447.84819004 -9.86672544 446.52542243 -12.5 444.9375 C-13.55058594 444.3084375 -14.60117187 443.679375 -15.68359375 443.03125 C-18.98307951 441.01036355 -22.27375752 438.97581477 -25.5625 436.9375 C-30.30259742 434.00582837 -35.09475469 431.25345176 -40.00390625 428.6171875 C-49.51565143 423.48307733 -58.88628522 418.11614865 -68.13476562 412.52294922 C-79.18732258 405.85041548 -90.3589128 399.37155226 -101.73046875 393.2578125 C-104.53427076 391.70389814 -107.22065257 389.9973884 -109.921875 388.2734375 C-113.2473176 386.23566629 -116.69322178 384.42532738 -120.125 382.57421875 C-122.86361786 381.07467663 -125.55941598 379.5213467 -128.25 377.9375 C-134.04382466 374.53288139 -139.89364228 371.23320093 -145.75 367.9375 C-154.14161701 363.20922498 -162.4936828 358.41774218 -170.8125 353.5625 C-171.78348633 352.99587646 -172.75447266 352.42925293 -173.75488281 351.84545898 C-179.0329825 348.75745161 -184.28997037 345.63752845 -189.5222168 342.47241211 C-191.55612499 341.26377083 -193.59987666 340.08008056 -195.65486145 338.90797424 C-196.75875717 338.27834274 -197.86265289 337.64871124 -199 337 C-199.22812954 308.31127348 -199.40509763 279.6226539 -199.51065329 250.93319889 C-199.52316035 247.54612199 -199.53610357 244.15904688 -199.54931641 240.77197266 C-199.55193951 240.09766758 -199.55456261 239.4233625 -199.55726521 238.72862394 C-199.60077806 227.81043451 -199.67962248 216.89277163 -199.77152796 205.97489457 C-199.86504634 194.77197159 -199.91983951 183.56931163 -199.94088495 172.36597884 C-199.95393466 166.07301334 -199.98464957 159.78124202 -200.05730057 153.48865891 C-200.12511462 147.56711809 -200.14612919 141.64726455 -200.13107681 135.72537231 C-200.13383086 133.55084694 -200.15376349 131.37626591 -200.19205475 129.20207596 C-200.46782606 112.73784251 -200.46782606 112.73784251 -196.82830429 108.4288063 C-194.22895053 106.83698283 -191.90317685 105.89039019 -189 105 C-187.73945075 104.31495459 -186.49563693 103.59749364 -185.27734375 102.83984375 C-183.62412109 101.89818359 -183.62412109 101.89818359 -181.9375 100.9375 C-181.04272949 100.42727295 -181.04272949 100.42727295 -180.12988281 99.90673828 C-176.84927522 98.03932915 -173.55694523 96.19528313 -170.25 94.375 C-167.29988047 92.74593252 -164.40151588 91.0512897 -161.51953125 89.3046875 C-155.53842758 85.70548784 -149.49021372 82.22698608 -143.4375 78.75 C-135.05312175 73.92520108 -126.68863833 69.07069239 -118.36157227 64.14770508 C-114.39609272 61.80751153 -110.39938546 59.54385019 -106.359375 57.3359375 C-103.07514891 55.47632604 -99.85420525 53.51568378 -96.625 51.5625 C-91.46602092 48.44623991 -86.26870047 45.4525034 -80.95703125 42.6015625 C-77.19859046 40.56594728 -73.47392145 38.47293579 -69.75 36.375 C-69.08814697 36.00246094 -68.42629395 35.62992188 -67.74438477 35.24609375 C-66.45691094 34.52044723 -65.17003442 33.7937398 -63.88378906 33.06591797 C-62.62651342 32.35450461 -61.36804369 31.64519748 -60.10839844 30.93798828 C-56.89130583 29.12138842 -53.78063327 27.23689799 -50.75 25.125 C-46.63676304 22.35047254 -42.39330087 19.96956774 -38.01953125 17.6328125 C-34.64777763 15.80953564 -31.32181053 13.91205112 -28 12 C-22.83990608 9.03375644 -17.6444695 6.14317389 -12.40234375 3.32421875 C-9.93240631 2.01611373 -9.93240631 2.01611373 -7.50390625 0.26953125 C-4.348358 -1.33039571 -3.35847836 -0.96423761 0 0 Z " fill="#397BD3" transform="translate(284,34)"/>
<path d="M0 0 C1.93057632 0.96347679 3.82329996 2.00462401 5.68359375 3.09765625 C6.76850098 3.73002197 7.8534082 4.3623877 8.97119141 5.01391602 C10.12668443 5.69668118 11.28211946 6.3795445 12.4375 7.0625 C13.62896513 7.75976746 14.82086194 8.4562978 16.01318359 9.15209961 C18.33426389 10.5073376 20.6532631 11.86591708 22.97119141 13.2265625 C26.34087751 15.19959167 29.72746066 17.13793113 33.125 19.0625 C38.30597341 22.01295508 43.45389782 25.01726285 48.59887695 28.0300293 C57.55607623 33.27443582 66.53730836 38.45232133 75.63061523 43.45703125 C81.2770325 46.57370541 86.84087482 49.81547133 92.38745117 53.10595703 C98.96282739 57.00006033 105.5997002 60.78310001 112.25512695 64.53857422 C113.92825265 65.48791447 115.58838758 66.46047089 117.2355957 67.45410156 C120.06334401 69.10721386 120.06334401 69.10721386 123.50463867 70.44433594 C127.43845563 72.2798493 130.05835367 73.78896604 133 77 C135.10582597 83.3786904 134.21811216 90.40777222 133.8125 97 C133.74722618 98.84224417 133.68792166 100.68471012 133.63476562 102.52734375 C133.50310335 107.0281679 133.24939575 111.49808703 133 116 C120.79 116 108.58 116 96 116 C96 110.06 96 104.12 96 98 C94.35 97.34 92.7 96.68 91 96 C89.5718332 95.25268999 88.15891706 94.47559731 86.76171875 93.671875 C85.55116821 92.97819824 85.55116821 92.97819824 84.31616211 92.27050781 C83.44870361 91.76874023 82.58124512 91.26697266 81.6875 90.75 C80.76525635 90.21987305 79.8430127 89.68974609 78.89282227 89.14355469 C71.06929166 84.63844095 63.27574966 80.08191201 55.484375 75.52148438 C46.02912886 69.9957703 36.52028029 64.56552784 26.99975586 59.15332031 C25.86932861 58.50975586 24.73890137 57.86619141 23.57421875 57.203125 C22.56963623 56.63239258 21.56505371 56.06166016 20.5300293 55.47363281 C18.6490112 54.378021 16.81123309 53.20748873 15 52 C15 72.46 15 92.92 15 114 C2.79 114 -9.42 114 -22 114 C-22 93.54 -22 73.08 -22 52 C-30.58 56.95 -39.16 61.9 -48 67 C-54.99754227 71.0043739 -61.99656102 75.00597527 -69 79 C-72.68791155 81.10344636 -76.37532339 83.20776567 -80.0625 85.3125 C-80.88274658 85.78002686 -81.70299316 86.24755371 -82.5480957 86.72924805 C-84.12964169 87.63205584 -85.69732831 88.55972267 -87.24780273 89.51490784 C-90 91 -90 91 -93.07475281 91.89703369 C-97.14809577 93.38258943 -99.18719864 94.6557089 -102 98 C-104.35711202 106.30762792 -103.38739759 115.52593828 -103.171875 124.05859375 C-103.1494851 126.64929779 -103.13240752 129.24005274 -103.12042236 131.83082581 C-103.07934016 137.94475634 -102.98485977 144.05570524 -102.86422849 150.16851431 C-102.72983512 157.13069168 -102.66405723 164.09299666 -102.60388327 171.05614936 C-102.47863823 185.37215517 -102.26773748 199.68598542 -102 214 C-101.00742439 214.5602739 -101.00742439 214.5602739 -99.99479675 215.13186646 C-96.96896882 216.84012827 -93.94346629 218.54896561 -90.91796875 220.2578125 C-89.8770105 220.8453833 -88.83605225 221.4329541 -87.7635498 222.03833008 C-80.8072625 225.96804639 -73.8834476 229.94395806 -67 234 C-59.20521082 238.57041808 -51.3762431 243.07146832 -43.5 247.5 C-35.21048049 252.16231485 -26.96534614 256.89562642 -18.75 261.6875 C-17.71939453 262.28820312 -16.68878906 262.88890625 -15.62695312 263.5078125 C-8.39550781 267.73632812 -8.39550781 267.73632812 -5 270 C-0.65104527 269.41945659 2.98900437 266.94149808 6.75 264.8125 C7.53439453 264.37252686 8.31878906 263.93255371 9.12695312 263.47924805 C17.69498363 258.65016092 26.17743241 253.67331345 34.6640625 248.703125 C42.12259743 244.33749136 49.6075798 240.01815757 57.09814453 235.70776367 C62.2221243 232.75879653 67.34261671 229.80445293 72.44821167 226.82377625 C74.84493523 225.42490608 77.24371965 224.02959108 79.64263916 222.63449097 C81.33912146 221.64590734 83.03263268 220.65223071 84.72607422 219.65844727 C85.7523291 219.06217529 86.77858398 218.46590332 87.8359375 217.8515625 C88.73876465 217.32385254 89.6415918 216.79614258 90.57177734 216.25244141 C93 215 93 215 97 214 C97 207.07 97 200.14 97 193 C78.52 193 60.04 193 41 193 C41 180.79 41 168.58 41 156 C71.36 156 101.72 156 133 156 C133.185625 168.91125 133.37125 181.8225 133.5625 195.125 C133.64443604 199.19473145 133.72637207 203.26446289 133.81079102 207.45751953 C133.85144043 212.44506836 133.85144043 212.44506836 133.85899353 214.78341675 C133.87277325 216.40921216 133.9043469 218.03491807 133.95018005 219.66012573 C134.31710846 233.36157521 134.31710846 233.36157521 131.12614441 237.33099365 C128.80276871 238.91519251 126.61626135 239.98571794 124 241 C123.03989014 241.556875 122.07978027 242.11375 121.09057617 242.6875 C120.27049072 243.120625 119.45040527 243.55375 118.60546875 244 C113.13231492 246.92814205 107.71576739 249.94500416 102.3125 253 C101.32483643 253.5583252 100.33717285 254.11665039 99.31958008 254.69189453 C91.23837404 259.27309445 83.20742938 263.93713304 75.19018555 268.62915039 C67.8500205 272.92466395 60.49329594 277.19042703 53.125 281.4375 C52.0529834 282.05560547 50.9809668 282.67371094 49.87646484 283.31054688 C44.28790191 286.53172665 38.69729231 289.7493281 33.10546875 292.96484375 C31.97568604 293.61517578 30.84590332 294.26550781 29.68188477 294.93554688 C27.4629962 296.21276235 25.24344862 297.4888337 23.02319336 298.76367188 C18.3836995 301.43501465 13.7613822 304.1205203 9.2109375 306.94140625 C8.51701904 307.37018066 7.82310059 307.79895508 7.1081543 308.24072266 C5.35051227 309.33592556 3.6024688 310.44649407 1.85546875 311.55859375 C-1.26967112 313.13612674 -2.56661118 313.3580835 -6 313 C-8.64941406 311.75341797 -8.64941406 311.75341797 -11.515625 309.9921875 C-13.12570435 309.01741455 -13.12570435 309.01741455 -14.76831055 308.02294922 C-15.61829117 307.4984317 -15.61829117 307.4984317 -16.48544312 306.96331787 C-19.50899372 305.09849607 -22.5546462 303.2703303 -25.59765625 301.4375 C-26.21852615 301.06229218 -26.83939606 300.68708435 -27.4790802 300.30050659 C-33.47295616 296.68866248 -39.56545272 293.26458889 -45.6875 289.875 C-55.84393023 284.23448979 -65.89463562 278.4317234 -75.91796875 272.55859375 C-82.1809457 268.88907841 -88.46240774 265.25214677 -94.75 261.625 C-95.80904541 261.01374268 -96.86809082 260.40248535 -97.95922852 259.77270508 C-103.87179636 256.36473276 -109.79411966 252.97477666 -115.7265625 249.6015625 C-117.01595373 248.86768142 -118.30534178 248.13379476 -119.59472656 247.39990234 C-122.06623054 245.99337404 -124.53981785 244.59060632 -127.01464844 243.18994141 C-128.13129883 242.55491699 -129.24794922 241.91989258 -130.3984375 241.265625 C-131.38505371 240.70649414 -132.37166992 240.14736328 -133.38818359 239.57128906 C-134.68103271 238.79350098 -134.68103271 238.79350098 -136 238 C-136.70089437 237.60194342 -137.40178875 237.20388683 -138.12392235 236.79376793 C-140 235 -140 235 -140.55364418 232.19962502 C-140.57853102 231.0541287 -140.60341785 229.90863239 -140.62905884 228.72842407 C-140.66635101 227.41365082 -140.70364319 226.09887756 -140.74206543 224.7442627 C-140.7629964 223.28345498 -140.78336309 221.82263908 -140.80322266 220.36181641 C-140.83810739 218.82580373 -140.87442796 217.28982309 -140.91207886 215.75387573 C-141.02729376 210.70345505 -141.09846561 205.65283738 -141.1640625 200.6015625 C-141.1759547 199.74109802 -141.1878469 198.88063354 -141.20009947 197.99409437 C-141.31200259 189.87134108 -141.40931919 181.74856072 -141.46839333 173.62523842 C-141.54456458 163.25090659 -141.69447118 152.8836984 -141.94807017 142.51214087 C-142.1204774 135.21090018 -142.20758811 127.91156234 -142.23262823 120.60834634 C-142.24979305 116.25013293 -142.30326275 111.89974133 -142.4483223 107.54375076 C-143.28688031 81.12899213 -143.28688031 81.12899213 -137.84385109 74.29143715 C-132.65705787 69.89923565 -126.95757736 67.25852509 -120.59954453 64.97700977 C-117.07239963 63.65137176 -114.09520466 61.86232582 -110.90234375 59.87109375 C-108.91481321 58.72525936 -106.92654681 57.58070029 -104.9375 56.4375 C-103.85227051 55.81238525 -102.76704102 55.18727051 -101.64892578 54.54321289 C-94.05583175 50.17259459 -86.44745693 45.82907849 -78.83618164 41.49023438 C-69.12289846 35.94349951 -59.47334738 30.28771836 -49.81591797 24.64453125 C-43.404343 20.90009142 -36.98286305 17.17388357 -30.54541016 13.47412109 C-27.64954783 11.79704295 -24.76882594 10.09513125 -21.88671875 8.39453125 C-19.79978584 7.17916075 -17.7125504 5.96430957 -15.625 4.75 C-14.64329834 4.16404053 -13.66159668 3.57808105 -12.65014648 2.97436523 C-11.72661377 2.44141846 -10.80308105 1.90847168 -9.8515625 1.359375 C-9.03510254 0.87952148 -8.21864258 0.39966797 -7.37744141 -0.09472656 C-4.37538243 -1.23783959 -3.03583816 -1.00052257 0 0 Z " fill="#FBFDFE" transform="translate(284,102)"/>
<path d="M0 0 C0.33 0 0.66 0 1 0 C1.33 56.43 1.66 112.86 2 171 C3.65 171 5.3 171 7 171 C7 171.66 7 172.32 7 173 C8.32 173 9.64 173 11 173 C11 174.32 11 175.64 11 177 C15.455 179.475 15.455 179.475 20 182 C20 182.66 20 183.32 20 184 C22.64 184.33 25.28 184.66 28 185 C28 185.66 28 186.32 28 187 C28.72445312 187.26554688 29.44890625 187.53109375 30.1953125 187.8046875 C33.00576647 189.00245758 35.33116333 190.44265434 37.875 192.125 C42.27196273 194.83689917 44.90325281 195.66479311 50 195 C50.165 195.721875 50.33 196.44375 50.5 197.1875 C52.67811691 201.27146921 55.81861792 203.14160796 60 205 C63.33711408 205.42248477 63.33711408 205.42248477 66 205 C65.34 206.32 64.68 207.64 64 209 C65.11375 209.185625 65.11375 209.185625 66.25 209.375 C69 210 69 210 70.875 211 C73.24409729 212.11486931 75.15096669 212.39567353 77.75 212.625 C78.94882813 212.73714844 78.94882813 212.73714844 80.171875 212.8515625 C81.07679688 212.92503906 81.07679688 212.92503906 82 213 C82.309375 214.3921875 82.309375 214.3921875 82.625 215.8125 C84.37087498 219.85975565 86.00849344 220.37081365 90 222 C91.485 222.99 91.485 222.99 93 224 C93.99 224 94.98 224 96 224 C96.66 224.99 97.32 225.98 98 227 C99.96361864 227.57748803 99.96361864 227.57748803 102.125 227.6875 C104.043125 227.8421875 104.043125 227.8421875 106 228 C105.67 228.99 105.34 229.98 105 231 C105.66 231 106.32 231 107 231 C107 231.99 107 232.98 107 234 C108.051875 234.185625 108.051875 234.185625 109.125 234.375 C112.17656387 235.03838345 115.05340938 235.97211955 118 237 C118 237.66 118 238.32 118 239 C118.9075 239.45375 119.815 239.9075 120.75 240.375 C123.16666667 241.58333333 125.58333333 242.79166667 128 244 C128 244.66 128 245.32 128 246 C130.31 246.33 132.62 246.66 135 247 C135 247.99 135 248.98 135 250 C136.32 249.67 137.64 249.34 139 249 C139.33 250.32 139.66 251.64 140 253 C140.598125 252.814375 141.19625 252.62875 141.8125 252.4375 C144 252 144 252 147 253 C147.2475 253.61875 147.495 254.2375 147.75 254.875 C149.69863861 258.18768563 152.45270306 258.68618632 156 260 C156 260.66 156 261.32 156 262 C159.62528568 262.20140476 161.86501708 261.85776765 165 260 C165 262.31 165 264.62 165 267 C165.9590625 267.37125 165.9590625 267.37125 166.9375 267.75 C169.53278938 268.80930179 172.11456386 269.8878276 174.6875 271 C175.45449219 271.33 176.22148437 271.66 177.01171875 272 C179 273 179 273 181 275 C181.66 275.165 182.32 275.33 183 275.5 C185 276 185 276 187 278 C188.35858905 278.90026985 189.73542997 279.77332804 191.125 280.625 C191.84945312 281.07101562 192.57390625 281.51703125 193.3203125 281.9765625 C193.87460937 282.31429688 194.42890625 282.65203125 195 283 C195.70125 282.030625 196.4025 281.06125 197.125 280.0625 C199.22898435 277.51494061 199.84148435 277.0435141 203.1875 276.125 C205.80101008 276.008844 208.38378441 276 211 276 C211 275.34 211 274.68 211 274 C211.99 274 212.98 274 214 274 C214.33 273.01 214.66 272.02 215 271 C217.76643905 269.04721949 220.63353891 267.7135818 223.75 266.4375 C227.07594875 265.3790064 227.07594875 265.3790064 228 263 C230.95220679 261.64198488 233.91989985 260.41775417 236.94921875 259.24609375 C240.44194052 257.84754059 241.85370427 257.2194436 244 254 C244.99 254 245.98 254 247 254 C247 253.34 247 252.68 247 252 C247.928125 251.896875 248.85625 251.79375 249.8125 251.6875 C253.20332568 250.95614544 253.73346842 250.36955574 256 248 C257.32 248 258.64 248 260 248 C260 247.34 260 246.68 260 246 C261.4540625 245.38125 261.4540625 245.38125 262.9375 244.75 C263.948125 244.1725 264.95875 243.595 266 243 C266.165 242.319375 266.33 241.63875 266.5 240.9375 C266.665 240.298125 266.83 239.65875 267 239 C270 237.875 270 237.875 273 237 C273.33 236.34 273.66 235.68 274 235 C276.28515625 234.5859375 276.28515625 234.5859375 279.0625 234.375 C279.98160156 234.30023438 280.90070313 234.22546875 281.84765625 234.1484375 C282.55792969 234.09945312 283.26820313 234.05046875 284 234 C283.67 233.01 283.34 232.02 283 231 C284.0625 228.8125 284.0625 228.8125 286 227 C287.99954746 226.95745644 290.00041636 226.95919217 292 227 C294.09663191 225.65670412 294.09663191 225.65670412 296 224 C298.5625 222.6875 298.5625 222.6875 301 222 C301.99 222.66 302.98 223.32 304 224 C301.11877356 226.26865265 298.19102727 228.06068183 294.953125 229.77734375 C289.13696608 232.90608265 283.44090935 236.21266707 277.75 239.5625 C269.70497325 244.27837753 261.62914571 248.93069003 253.5 253.5 C237.52613512 262.48701854 221.67400553 271.69055374 206.0234375 281.23046875 C197.80811745 286.03865994 197.80811745 286.03865994 194.46875 285.87890625 C191.57358268 284.84819004 189.13327456 283.52542243 186.5 281.9375 C185.44941406 281.3084375 184.39882813 280.679375 183.31640625 280.03125 C180.01692049 278.01036355 176.72624248 275.97581477 173.4375 273.9375 C168.69740258 271.00582837 163.90524531 268.25345176 158.99609375 265.6171875 C149.48434857 260.48307733 140.11371478 255.11614865 130.86523438 249.52294922 C119.81267742 242.85041548 108.6410872 236.37155226 97.26953125 230.2578125 C94.46572924 228.70389814 91.77934743 226.9973884 89.078125 225.2734375 C85.7526824 223.23566629 82.30677822 221.42532738 78.875 219.57421875 C76.13638214 218.07467663 73.44058402 216.5213467 70.75 214.9375 C64.95617534 211.53288139 59.10635772 208.23320093 53.25 204.9375 C44.85838299 200.20922498 36.5063172 195.41774218 28.1875 190.5625 C26.73102051 189.7125647 26.73102051 189.7125647 25.24511719 188.84545898 C19.9670175 185.75745161 14.71002963 182.63752845 9.4777832 179.47241211 C6.34165645 177.60878215 3.16741092 175.80994909 0 174 C0 116.58 0 59.16 0 0 Z " fill="#3C3A9B" transform="translate(85,197)"/>
<path d="M0 0 C-0.99 0.66 -1.98 1.32 -3 2 C-3.72965366 4.56282742 -3.72965366 4.56282742 -4 7 C-10.61111111 8.94444444 -10.61111111 8.94444444 -13.625 9.375 C-16.75689959 10.1991841 -18.51865892 11.95289361 -21 14 C-22.66140763 14.67966676 -24.32700041 15.34938905 -26 16 C-26.33 16.66 -26.66 17.32 -27 18 C-28.9375 18.6875 -28.9375 18.6875 -31 19 C-31.66 18.67 -32.32 18.34 -33 18 C-33 18.66 -33 19.32 -33 20 C-33.9590625 20.433125 -33.9590625 20.433125 -34.9375 20.875 C-37.15206079 21.82823451 -37.15206079 21.82823451 -38 24 C-39.33333333 24.33333333 -40.66666667 24.66666667 -42 25 C-42.33 25.66 -42.66 26.32 -43 27 C-44.9609375 28.10546875 -44.9609375 28.10546875 -47.375 29.1875 C-48.16648437 29.55230469 -48.95796875 29.91710937 -49.7734375 30.29296875 C-52 31 -52 31 -55 30 C-55 30.66 -55 31.32 -55 32 C-55.99 32.66 -56.98 33.32 -58 34 C-58.33 34.99 -58.66 35.98 -59 37 C-59.99 37 -60.98 37 -62 37 C-62.495 37.99 -62.495 37.99 -63 39 C-64.7421875 39.5625 -64.7421875 39.5625 -66.875 40 C-71.2581764 40.90574863 -73.43608305 42.15412458 -76 46 C-79.625 47.1875 -79.625 47.1875 -83 48 C-83.33 49.32 -83.66 50.64 -84 52 C-84.66 52 -85.32 52 -86 52 C-86.495 52.99 -86.495 52.99 -87 54 C-87.66 54.99 -88.32 55.98 -89 57 C-89.66 57 -90.32 57 -91 57 C-91 56.34 -91 55.68 -91 55 C-92.1446875 55.495 -92.1446875 55.495 -93.3125 56 C-96 57 -96 57 -99 57 C-100.2236068 59.0745356 -100.2236068 59.0745356 -100 62 C-101.98 62.99 -101.98 62.99 -104 64 C-104.33 63.34 -104.66 62.68 -105 62 C-107.97 63.32 -110.94 64.64 -114 66 C-114 67.32 -114 68.64 -114 70 C-114.66 70.66 -115.32 71.32 -116 72 C-117.65 71.01 -119.3 70.02 -121 69 C-121 69.66 -121 70.32 -121 71 C-126.19722684 73.65164635 -129.13050393 74.43968771 -135 73 C-136.34050052 72.34786461 -137.67661368 71.68620031 -139 71 C-139.99 71.495 -139.99 71.495 -141 72 C-143.04119788 70.38405168 -145.04072937 68.7143618 -147 67 C-147 66.34 -147 65.68 -147 65 C-148.97746603 64.26919734 -150.98072489 63.60578253 -153 63 C-153.99 63.495 -153.99 63.495 -155 64 C-155.495 62.515 -155.495 62.515 -156 61 C-158.20732196 59.27783533 -158.20732196 59.27783533 -160.875 57.75 C-162.20144531 56.93789063 -162.20144531 56.93789063 -163.5546875 56.109375 C-166.05539625 54.64073121 -166.05539625 54.64073121 -169 56 C-169.33 55.34 -169.66 54.68 -170 54 C-170.66 53.67 -171.32 53.34 -172 53 C-171.67 51.68 -171.34 50.36 -171 49 C-161.79203742 54.06168703 -152.61733191 59.16805033 -143.5625 64.5 C-142.84779541 64.92071777 -142.13309082 65.34143555 -141.39672852 65.77490234 C-138.55186176 67.45807215 -135.75097321 69.16601786 -133 71 C-128.30212015 71.7098664 -125.720159 69.92502501 -121.8125 67.4375 C-120.47035942 66.60157706 -119.12646998 65.7684583 -117.78125 64.9375 C-116.65203125 64.23753906 -116.65203125 64.23753906 -115.5 63.5234375 C-110.65659854 60.57198974 -105.72977874 57.76349269 -100.8125 54.9375 C-99.70430908 54.2993335 -98.59611816 53.66116699 -97.4543457 53.00366211 C-88.72598897 47.98155338 -79.98259234 42.98585667 -71.23709106 37.99368286 C-56.20425599 29.41199851 -41.19008802 20.79705425 -26.25 12.0546875 C-25.15848633 11.41611816 -24.06697266 10.77754883 -22.94238281 10.11962891 C-20.872921 8.90764217 -18.80449529 7.69388386 -16.73730469 6.47802734 C-3.62253289 -1.20751096 -3.62253289 -1.20751096 0 0 Z " fill="#4D61C4" transform="translate(411,343)"/>
<path d="M0 0 C1.32 0 2.64 0 4 0 C4 0.66 4 1.32 4 2 C5.32 2.33 6.64 2.66 8 3 C8.33 4.32 8.66 5.64 9 7 C10.134375 7.12375 11.26875 7.2475 12.4375 7.375 C13.613125 7.58125 14.78875 7.7875 16 8 C16.33 8.66 16.66 9.32 17 10 C19.64 9.67 22.28 9.34 25 9 C26.0625 11.375 26.0625 11.375 27 14 C26.67 14.66 26.34 15.32 26 16 C28.31 16 30.62 16 33 16 C33.495 17.485 33.495 17.485 34 19 C34.99 19.66 35.98 20.32 37 21 C37 21.66 37 22.32 37 23 C37.763125 22.979375 38.52625 22.95875 39.3125 22.9375 C42 23 42 23 45 24 C45.04958399 29.44432256 45.08580666 34.88851249 45.10986328 40.33300781 C45.11989631 42.18361706 45.13352586 44.03421055 45.15087891 45.88476562 C45.17524608 48.5508209 45.18651023 51.21666584 45.1953125 53.8828125 C45.20563507 54.70492218 45.21595764 55.52703186 45.22659302 56.37405396 C45.2274861 60.98755336 44.76556724 64.65633804 43 69 C42.01 68.505 42.01 68.505 41 68 C36.59319364 67.74215684 32.18267811 67.72903183 27.76928711 67.70483398 C25.57407605 67.68759093 23.38036004 67.64369776 21.18554688 67.59960938 C19.79167774 67.58948471 18.39779581 67.58096789 17.00390625 67.57421875 C15.09847046 67.55234497 15.09847046 67.55234497 13.15454102 67.5300293 C9.90513176 67.68466397 9.90513176 67.68466397 8.06225586 70.02661133 C7.71171143 70.67782959 7.36116699 71.32904785 7 72 C6.34 71.67 5.68 71.34 5 71 C5 70.34 5 69.68 5 69 C4.34 69 3.68 69 3 69 C3.01160156 68.13117188 3.02320313 67.26234375 3.03515625 66.3671875 C3.04417969 65.21476562 3.05320312 64.06234375 3.0625 62.875 C3.07410156 61.73804688 3.08570313 60.60109375 3.09765625 59.4296875 C3.005327 56.1870844 2.61389906 53.18067388 2 50 C-0.31 50.66 -2.62 51.32 -5 52 C-5 50.35 -5 48.7 -5 47 C-5.66 47 -6.32 47 -7 47 C-7.66 45.02 -8.32 43.04 -9 41 C-6.5 41.6875 -6.5 41.6875 -3 43 C-2.28070313 43.20238281 -1.56140625 43.40476563 -0.8203125 43.61328125 C1.375 44.5 1.375 44.5 5 48 C5 53.94 5 59.88 5 66 C17.21 66 29.42 66 42 66 C44.61614325 44.30749385 44.61614325 44.30749385 39.01757812 24.0703125 C33.79269717 19.61631562 27.61765998 17.41727549 21.18847656 15.21582031 C15.91672028 13.20561003 11.31121306 10.19795735 6.5625 7.1875 C4.89919155 6.17759535 3.23402942 5.17073262 1.56640625 4.16796875 C0.37732838 3.44576638 -0.81159087 2.72330229 -2 2 C-1.34 1.34 -0.68 0.68 0 0 Z " fill="#4197CF" transform="translate(375,152)"/>
<path d="M0 0 C0.33 0 0.66 0 1 0 C1.33 56.43 1.66 112.86 2 171 C3.65 171 5.3 171 7 171 C7 171.66 7 172.32 7 173 C8.32 173 9.64 173 11 173 C11 174.32 11 175.64 11 177 C15.455 179.475 15.455 179.475 20 182 C20 182.66 20 183.32 20 184 C22.64 184.33 25.28 184.66 28 185 C28 185.66 28 186.32 28 187 C28.72445312 187.26554688 29.44890625 187.53109375 30.1953125 187.8046875 C33.00576647 189.00245758 35.33116333 190.44265434 37.875 192.125 C42.27196273 194.83689917 44.90325281 195.66479311 50 195 C50.66 196.98 51.32 198.96 52 201 C43.3271125 199.1765465 36.46501288 195.78684408 28.9375 191.1875 C27.92623047 190.58357422 26.91496094 189.97964844 25.87304688 189.35742188 C22.90789498 187.58367679 19.95308227 185.79375009 17 184 C15.23136717 182.93210438 13.46188549 181.86561288 11.69140625 180.80078125 C10.95220947 180.35516846 10.2130127 179.90955566 9.45141602 179.45043945 C6.32145128 177.59852027 3.15762304 175.80435602 0 174 C0 116.58 0 59.16 0 0 Z " fill="#2C3871" transform="translate(85,197)"/>
<path d="M0 0 C1.28318115 0.73355713 1.28318115 0.73355713 2.59228516 1.48193359 C8.60906059 4.92106027 14.62691189 8.35825628 20.6484375 11.7890625 C32.75860336 18.69285552 44.84927671 25.62450491 56.86889648 32.68530273 C62.44415824 35.95298022 68.04761747 39.1629169 73.68359375 42.32421875 C74.98641007 43.05779719 76.28914494 43.79152032 77.59179688 44.52539062 C79.50244343 45.60171267 81.41454159 46.67478016 83.33276367 47.73754883 C85.10002971 48.7167129 86.86072812 49.70770255 88.62109375 50.69921875 C89.6361499 51.26471436 90.65120605 51.83020996 91.69702148 52.4128418 C94 54 94 54 95 57 C94.2575 56.67 93.515 56.34 92.75 56 C89.86116688 54.77217129 89.86116688 54.77217129 86 55 C86 54.01 86 53.02 86 52 C84.35 51.67 82.7 51.34 81 51 C81 50.01 81 49.02 81 48 C80.2575 47.896875 79.515 47.79375 78.75 47.6875 C76 47 76 47 73.9375 45.375 C72.0834549 43.7264136 72.0834549 43.7264136 69.75 44.3125 C68.88375 44.6528125 68.88375 44.6528125 68 45 C67.773125 44.360625 67.54625 43.72125 67.3125 43.0625 C66.14749104 40.72806339 66.14749104 40.72806339 63.375 40.25 C62.59125 40.1675 61.8075 40.085 61 40 C61 39.01 61 38.02 61 37 C60.01 37 59.02 37 58 37 C57.505 37.99 57.505 37.99 57 39 C51.125 34.25 51.125 34.25 50 32 C49.236875 32.020625 48.47375 32.04125 47.6875 32.0625 C45 32 45 32 42 31 C41.9175 30.21625 41.835 29.4325 41.75 28.625 C41.25832685 25.95115165 41.25832685 25.95115165 39.375 24.6875 C36.8617609 23.84069589 36.8617609 23.84069589 33.5625 24 C30.08291452 24 28.08939542 23.49788869 25 22 C25.33 21.01 25.66 20.02 26 19 C26.66 19.33 27.32 19.66 28 20 C28 19.34 28 18.68 28 18 C25.03 17.01 22.06 16.02 19 15 C19 14.34 19 13.68 19 13 C17.68 13 16.36 13 15 13 C14.67 13.66 14.34 14.32 14 15 C12.35 14.67 10.7 14.34 9 14 C9 12.02 9 10.04 9 8 C7.88625 7.9071875 7.88625 7.9071875 6.75 7.8125 C3.14877223 6.74850088 2.03243704 5.08629328 0 2 C0 1.34 0 0.68 0 0 Z " fill="#4D5FC1" transform="translate(143,336)"/>
<path d="M0 0 C1.65 0.33 3.3 0.66 5 1 C1.58428094 3.87967556 -1.78314029 6.07990911 -5.75 8.125 C-10.80814086 10.79786373 -15.76820728 13.58020765 -20.6875 16.5 C-31.31687406 22.79980047 -42.02486992 28.9616748 -52.73632812 35.12060547 C-55.9157949 36.95151026 -59.09107229 38.78949754 -62.265625 40.62890625 C-64.17697862 41.7319523 -66.08843162 42.83482617 -68 43.9375 C-69.32596191 44.70876221 -69.32596191 44.70876221 -70.67871094 45.49560547 C-71.48598633 45.9598291 -72.29326172 46.42405273 -73.125 46.90234375 C-74.18074219 47.51323853 -74.18074219 47.51323853 -75.2578125 48.13647461 C-77 49 -77 49 -79 49 C-77.5347006 45.13693793 -75.62997185 43.8571949 -72 42 C-71.154375 41.690625 -70.30875 41.38125 -69.4375 41.0625 C-66.85621404 40.12079054 -66.85621404 40.12079054 -64.9375 37.875 C-63 36 -63 36 -59 36 C-59 35.34 -59 34.68 -59 34 C-55.535 33.505 -55.535 33.505 -52 33 C-51.67 31.68 -51.34 30.36 -51 29 C-49.35 29 -47.7 29 -46 29 C-46 28.34 -46 27.68 -46 27 C-46.66 27 -47.32 27 -48 27 C-48 26.34 -48 25.68 -48 25 C-46.0625 24.4375 -46.0625 24.4375 -44 24 C-43.67 24.33 -43.34 24.66 -43 25 C-38.18877153 23.47444034 -38.18877153 23.47444034 -35 20 C-33.15234375 19.1484375 -33.15234375 19.1484375 -30.9375 18.375 C-29.83728516 17.98441406 -29.83728516 17.98441406 -28.71484375 17.5859375 C-28.14894531 17.39257812 -27.58304688 17.19921875 -27 17 C-27 14.69 -27 12.38 -27 10 C-26.02417969 9.93941406 -25.04835937 9.87882812 -24.04296875 9.81640625 C-22.77066406 9.73261719 -21.49835938 9.64882812 -20.1875 9.5625 C-18.92292969 9.48128906 -17.65835938 9.40007812 -16.35546875 9.31640625 C-13.00818107 9.12815453 -13.00818107 9.12815453 -10 8 C-10 7.34 -10 6.68 -10 6 C-8.68 6 -7.36 6 -6 6 C-6 5.34 -6 4.68 -6 4 C-5.34 4 -4.68 4 -4 4 C-4 3.34 -4 2.68 -4 2 C-3.01 2 -2.02 2 -1 2 C-0.67 1.34 -0.34 0.68 0 0 Z " fill="#479CD1" transform="translate(267,104)"/>
<path d="M0 0 C0.66 0 1.32 0 2 0 C2 54.45 2 108.9 2 165 C1.67 165 1.34 165 1 165 C0.98969254 164.33873108 0.97938507 163.67746216 0.96876526 162.99615479 C0.84577457 155.11920776 0.72143306 147.24228245 0.59614182 139.3653717 C0.57377089 137.95870502 0.55142427 136.55203795 0.52910233 135.14537048 C0.27926059 119.40895805 0.02197079 103.67284515 -0.2890625 87.9375 C-0.31216995 86.76652771 -0.3352774 85.59555542 -0.35908508 84.38909912 C-0.46806492 78.90288765 -0.57983031 73.41674751 -0.69506836 67.93066406 C-1.0566286 50.38973659 -1.08845769 32.91024922 -0.5 15.375 C-0.45156041 13.86719591 -0.40338264 12.35938339 -0.35546875 10.8515625 C-0.23997207 7.23427352 -0.12102091 3.6171089 0 0 Z " fill="#4098CE" transform="translate(473,145)"/>
<path d="M0 0 C0.86625 0.2784375 0.86625 0.2784375 1.75 0.5625 C3.96665824 1.15823559 3.96665824 1.15823559 6 0.5 C8.34648094 -0.08662023 9.72600578 0.26907328 12 1 C12 1.66 12 2.32 12 3 C13.32 3 14.64 3 16 3 C16.33 4.32 16.66 5.64 17 7 C19.31 7 21.62 7 24 7 C25 9 25 9 26 12 C26.969375 12.12375 27.93875 12.2475 28.9375 12.375 C29.948125 12.58125 30.95875 12.7875 32 13 C32.495 13.99 32.495 13.99 33 15 C35.32156597 15.40729228 37.6568787 15.74438677 40 16 C40 17.32 40 18.64 40 20 C44.17696978 21.94925257 48.26804729 22.60449242 52.79296875 23.2421875 C55 24 55 24 56.19921875 25.96484375 C56.46347656 26.63644531 56.72773438 27.30804688 57 28 C60.50896488 31.64392507 64.17943607 31.54089867 69 32 C70.485 32.495 70.485 32.495 72 33 C72.495 36.465 72.495 36.465 73 40 C68.79017479 38.74627103 65.45337862 37.19561287 61.8125 34.75 C57.33175468 31.74907072 52.69958129 29.16599561 47.95922852 26.60595703 C43.12715203 23.98361571 38.34709628 21.27019963 33.5625 18.5625 C32.55912598 17.99772949 31.55575195 17.43295898 30.52197266 16.85107422 C26.31840151 14.47893731 22.12327919 12.10827186 18.01953125 9.56640625 C16.98183594 8.92574219 15.94414062 8.28507812 14.875 7.625 C13.60269531 6.80902344 13.60269531 6.80902344 12.3046875 5.9765625 C8.53278924 4.37830053 5.87030689 5.6712174 2.1875 7.0625 C1.1046875 7.5265625 1.1046875 7.5265625 0 8 C-0.98120464 4.94736336 -0.98120464 3.05263664 0 0 Z " fill="#48AAD6" transform="translate(272,97)"/>
<path d="M0 0 C-0.33 0.99 -0.66 1.98 -1 3 C-1.99 3 -2.98 3 -4 3 C-3.97494385 4.31243179 -3.9498877 5.62486359 -3.92407227 6.97706604 C-3.68792044 19.35115295 -3.45246751 31.72525299 -3.21769714 44.09936619 C-3.09697992 50.4608635 -2.97601729 56.82235595 -2.85449219 63.18383789 C-2.73720274 69.32406986 -2.62056006 75.46431382 -2.50436401 81.60456657 C-2.45994048 83.94608942 -2.4152847 86.28760788 -2.37039185 88.62912178 C-2.30750923 91.911021 -2.24545558 95.19293492 -2.18359375 98.47485352 C-2.16489227 99.44086487 -2.1461908 100.40687622 -2.12692261 101.40216064 C-2.03607188 106.26919905 -1.98034709 111.13211625 -2 116 C-1.030625 116.268125 -0.06125 116.53625 0.9375 116.8125 C1.948125 117.204375 2.95875 117.59625 4 118 C4.33 118.99 4.66 119.98 5 121 C5.99 121.495 6.98 121.99 8 122.5 C8.99 122.995 9.98 123.49 11 124 C11.33 124.99 11.66 125.98 12 127 C9.9990493 126.33619225 7.9992521 125.66890619 6 125 C5.02626434 124.73173904 4.05252869 124.46347809 3.04928589 124.18708801 C-0.73766373 122.60907409 -2.5143721 121.31136691 -5 118 C-7.18258059 109.65546056 -6.34716401 100.55210554 -6.1796875 92.01171875 C-6.16678013 89.42578412 -6.15830762 86.83982387 -6.15408325 84.25386047 C-6.13421867 78.84205432 -6.08020889 73.43237044 -5.99462891 68.02124023 C-5.88489589 61.07240231 -5.83998986 54.12474691 -5.81632805 47.17514324 C-5.79356324 40.55799086 -5.73692295 33.94115473 -5.6796875 27.32421875 C-5.67101528 26.05570257 -5.66234306 24.78718639 -5.65340805 23.48023033 C-5.62350288 19.90785346 -5.57286261 16.33642642 -5.51513672 12.7644043 C-5.50864105 11.69790649 -5.50214539 10.63140869 -5.49545288 9.53259277 C-5.47543213 8.56391769 -5.45541138 7.59524261 -5.43478394 6.59721375 C-5.42326231 5.75272517 -5.41174068 4.9082366 -5.39986992 4.03815746 C-5.26791285 3.3655655 -5.13595577 2.69297354 -5 2 C-2 0 -2 0 0 0 Z " fill="#4578BB" transform="translate(186,198)"/>
<path d="M0 0 C-0.99 0.66 -1.98 1.32 -3 2 C-3.72965366 4.56282742 -3.72965366 4.56282742 -4 7 C-10.61111111 8.94444444 -10.61111111 8.94444444 -13.625 9.375 C-16.75689959 10.1991841 -18.51865892 11.95289361 -21 14 C-22.66140763 14.67966676 -24.32700041 15.34938905 -26 16 C-26.33 16.66 -26.66 17.32 -27 18 C-28.9375 18.6875 -28.9375 18.6875 -31 19 C-31.66 18.67 -32.32 18.34 -33 18 C-33 18.66 -33 19.32 -33 20 C-33.639375 20.28875 -34.27875 20.5775 -34.9375 20.875 C-37.15206079 21.82823451 -37.15206079 21.82823451 -38 24 C-39.33333333 24.33333333 -40.66666667 24.66666667 -42 25 C-42.33 25.66 -42.66 26.32 -43 27 C-44.9609375 28.10546875 -44.9609375 28.10546875 -47.375 29.1875 C-48.16648437 29.55230469 -48.95796875 29.91710937 -49.7734375 30.29296875 C-52 31 -52 31 -55 30 C-55 30.66 -55 31.32 -55 32 C-58.47307692 34.10865385 -58.47307692 34.10865385 -61.140625 33.55859375 C-61.75421875 33.37425781 -62.3678125 33.18992187 -63 33 C-61.99755249 32.4423999 -61.99755249 32.4423999 -60.97485352 31.87353516 C-46.10274081 23.59353074 -31.2980709 15.23430246 -16.734375 6.421875 C-16.04359863 6.00462158 -15.35282227 5.58736816 -14.64111328 5.1574707 C-13.33551943 4.36744255 -12.03168607 3.57449461 -10.72998047 2.77807617 C-3.96753917 -1.32251306 -3.96753917 -1.32251306 0 0 Z " fill="#4F73C8" transform="translate(411,343)"/>
<path d="M0 0 C0.66 0.33 1.32 0.66 2 1 C1.67 1.99 1.34 2.98 1 4 C2.72855926 6.14567913 2.72855926 6.14567913 5 8 C7.21858253 7.86358623 7.21858253 7.86358623 9 7 C9 8.32 9 9.64 9 11 C9.7425 10.649375 10.485 10.29875 11.25 9.9375 C14.1322726 8.95490707 15.21176345 8.9673198 18 10 C17.67 10.66 17.34 11.32 17 12 C16.34 12 15.68 12 15 12 C15 12.99 15 13.98 15 15 C20.94 15.99 20.94 15.99 27 17 C26.505 18.485 26.505 18.485 26 20 C27.32 20 28.64 20 30 20 C30.495 21.485 30.495 21.485 31 23 C35.52787229 25.43808508 38.05442635 26.23639341 43 25 C46 27 46 27 47 30 C46.505 31.485 46.505 31.485 46 33 C40.39117785 31.43495769 35.73681411 28.73002989 30.75 25.8125 C28.89460036 24.73685995 27.03912798 23.66134536 25.18359375 22.5859375 C24.19472168 22.01069336 23.20584961 21.43544922 22.18701172 20.84277344 C19.37108038 19.21456371 16.54702352 17.60262002 13.71664429 15.99977112 C11.33098711 14.64851668 8.94850829 13.2917133 6.56628418 11.93441772 C4.832037 10.94860557 3.0942574 9.96901613 1.35644531 8.98950195 C0.29651367 8.38323975 -0.76341797 7.77697754 -1.85546875 7.15234375 C-3.27315552 6.3478479 -3.27315552 6.3478479 -4.71948242 5.52709961 C-7 4 -7 4 -9 1 C-8.071875 1.20625 -7.14375 1.4125 -6.1875 1.625 C-2.84826598 2.36692966 -2.84826598 2.36692966 0 0 Z " fill="#4C6AC5" transform="translate(215,328)"/>
<path d="M0 0 C1.32 0 2.64 0 4 0 C4 0.66 4 1.32 4 2 C5.32 2.33 6.64 2.66 8 3 C8.33 4.32 8.66 5.64 9 7 C10.134375 7.12375 11.26875 7.2475 12.4375 7.375 C13.613125 7.58125 14.78875 7.7875 16 8 C16.33 8.66 16.66 9.32 17 10 C19.64 9.67 22.28 9.34 25 9 C26.0625 11.375 26.0625 11.375 27 14 C26.67 14.66 26.34 15.32 26 16 C28.31 16 30.62 16 33 16 C33.495 17.485 33.495 17.485 34 19 C34.99 19.66 35.98 20.32 37 21 C37 21.66 37 22.32 37 23 C38.65 23 40.3 23 42 23 C43.71802382 26.43604765 43.1196618 30.38438896 43.09765625 34.1640625 C43.0962413 35.07127045 43.09482635 35.97847839 43.09336853 36.91317749 C43.08776096 39.81715155 43.07520718 42.72104915 43.0625 45.625 C43.05748598 47.59114472 43.0529229 49.55729065 43.04882812 51.5234375 C43.03778906 56.3489879 43.02051935 61.17448097 43 66 C42.67 66 42.34 66 42 66 C42.09015381 64.88665283 42.18030762 63.77330566 42.27319336 62.6262207 C44.48018387 42.59751005 44.48018387 42.59751005 39.01757812 24.0703125 C33.79269717 19.61631562 27.61765998 17.41727549 21.18847656 15.21582031 C15.91672028 13.20561003 11.31121306 10.19795735 6.5625 7.1875 C4.89919155 6.17759535 3.23402942 5.17073262 1.56640625 4.16796875 C0.37732838 3.44576638 -0.81159087 2.72330229 -2 2 C-1.34 1.34 -0.68 0.68 0 0 Z " fill="#5CABD5" transform="translate(375,152)"/>
<path d="M0 0 C0.66 0.33 1.32 0.66 2 1 C1.67 1.66 1.34 2.32 1 3 C0.34 3 -0.32 3 -1 3 C-1 3.66 -1 4.32 -1 5 C-2.32 5 -3.64 5 -5 5 C-5 56.81 -5 108.62 -5 162 C-5.33 162 -5.66 162 -6 162 C-6.14008657 141.46854171 -6.24593001 120.93716207 -6.31087303 100.40532303 C-6.34182714 90.8722665 -6.38403719 81.33950671 -6.45263672 71.80664062 C-6.51239135 63.4989454 -6.55113784 55.19146504 -6.56453097 46.8835609 C-6.57236152 42.48339543 -6.59079653 38.0838447 -6.63438034 33.68387604 C-6.6750597 29.54364098 -6.68767888 25.40427471 -6.67864609 21.2638588 C-6.68029887 19.74323685 -6.6922627 18.22258633 -6.71523285 16.70213699 C-6.74505221 14.62678999 -6.7379308 12.55473066 -6.7215271 10.47930908 C-6.72705786 9.31784992 -6.73258862 8.15639076 -6.73828697 6.95973587 C-6 4 -6 4 -2.95490456 1.59504318 C-1.97978605 1.06867893 -1.00466755 0.54231468 0 0 Z " fill="#DDEEFE" transform="translate(150,175)"/>
<path d="M0 0 C3.25885 1.30354 6.00042816 2.4636583 8.98828125 4.1640625 C9.69404297 4.56367188 10.39980469 4.96328125 11.12695312 5.375 C11.84818359 5.7875 12.56941406 6.2 13.3125 6.625 C14.05306641 7.04523438 14.79363281 7.46546875 15.55664062 7.8984375 C17.37269011 8.92948495 19.18656533 9.96436046 21 11 C17.90226756 11.84062397 15.21667249 12.08935201 12 12 C12 11.01 12 10.02 12 9 C11.01 8.67 10.02 8.34 9 8 C9 7.34 9 6.68 9 6 C6.69 6 4.38 6 2 6 C2.0407666 6.87922119 2.0815332 7.75844238 2.12353516 8.66430664 C2.9173102 26.62727187 3.18566125 44.09925372 1 62 C0.67 62 0.34 62 0 62 C0 41.54 0 21.08 0 0 Z " fill="#3F90CC" transform="translate(299,154)"/>
<path d="M0 0 C1.32 0.66 2.64 1.32 4 2 C4 14.87 4 27.74 4 41 C-8.21 41 -20.42 41 -33 41 C-33 35.06 -33 29.12 -33 23 C-32.34 23 -31.68 23 -31 23 C-30.27277301 28.18149229 -30 32.68035751 -30 38 C-14.16 38.495 -14.16 38.495 2 39 C2.020625 34.545 2.04125 30.09 2.0625 25.5 C2.071604 24.11103516 2.08070801 22.72207031 2.09008789 21.29101562 C2.20919484 10.4943805 2.20919484 10.4943805 0 0 Z " fill="#D2EDFA" transform="translate(413,177)"/>
<path d="M0 0 C0.5775 0.37125 1.155 0.7425 1.75 1.125 C-1.02680141 3.30450317 -3.81555711 5.0456619 -6.9375 6.6875 C-10.54608467 8.61110451 -14.08320278 10.6106929 -17.57421875 12.73828125 C-18.32550049 13.19323975 -19.07678223 13.64819824 -19.85083008 14.11694336 C-21.3469894 15.02684594 -22.83791368 15.94542258 -24.32299805 16.87329102 C-30.7693041 20.77514019 -30.7693041 20.77514019 -35.25 20.125 C-35.25 18.805 -35.25 17.485 -35.25 16.125 C-34.280625 15.83625 -33.31125 15.5475 -32.3125 15.25 C-29.14335797 14.48285318 -29.14335797 14.48285318 -28.25 12.125 C-25.96484375 11.7109375 -25.96484375 11.7109375 -23.1875 11.5 C-21.80884766 11.38785156 -21.80884766 11.38785156 -20.40234375 11.2734375 C-19.33693359 11.19996094 -19.33693359 11.19996094 -18.25 11.125 C-18.58 10.135 -18.91 9.145 -19.25 8.125 C-18.1875 5.9375 -18.1875 5.9375 -16.25 4.125 C-14.25045254 4.08245644 -12.24958364 4.08419217 -10.25 4.125 C-8.09659471 2.80162714 -8.09659471 2.80162714 -6.25 1.125 C-2.84800664 -1.10755814 -2.84800664 -1.10755814 0 0 Z " fill="#3F4CAA" transform="translate(387.25,419.875)"/>
<path d="M0 0 C0.66 0.33 1.32 0.66 2 1 C0.87548273 3.9719385 -0.22293791 6.33440687 -2 9 C-2.86625 8.62875 -2.86625 8.62875 -3.75 8.25 C-4.4925 8.1675 -5.235 8.085 -6 8 C-8.31278117 9.72937829 -8.31278117 9.72937829 -10 12 C-10 12.66 -10 13.32 -10 14 C-10.969375 14.28875 -11.93875 14.5775 -12.9375 14.875 C-16.10664203 15.64214682 -16.10664203 15.64214682 -17 18 C-18.0828125 17.690625 -18.0828125 17.690625 -19.1875 17.375 C-22.48478212 16.93536238 -23.97635265 17.75952929 -27 19 C-29.15234375 18.5625 -29.15234375 18.5625 -31 18 C-28.31074355 16.42724124 -25.61971585 14.85770921 -22.92578125 13.29296875 C-19.95393292 11.5636234 -16.99731471 9.80984455 -14.04296875 8.05078125 C-12.32040005 7.03370588 -10.59774384 6.01677869 -8.875 5 C-8.03348389 4.4949292 -7.19196777 3.9898584 -6.32495117 3.46948242 C-5.53451416 3.00517822 -4.74407715 2.54087402 -3.9296875 2.0625 C-2.86596924 1.43021484 -2.86596924 1.43021484 -1.78076172 0.78515625 C-1.19311035 0.52605469 -0.60545898 0.26695313 0 0 Z " fill="#2F97BC" transform="translate(256,46)"/>
<path d="M0 0 C2.63929745 0.89910133 4.89206096 2.00806534 7.30078125 3.41015625 C8.09097656 3.86519531 8.88117188 4.32023437 9.6953125 4.7890625 C10.28699219 5.13839844 10.87867188 5.48773438 11.48828125 5.84765625 C11.48828125 6.17765625 11.48828125 6.50765625 11.48828125 6.84765625 C9.83828125 6.84765625 8.18828125 6.84765625 6.48828125 6.84765625 C6.48828125 6.18765625 6.48828125 5.52765625 6.48828125 4.84765625 C5.20953125 5.03328125 3.93078125 5.21890625 2.61328125 5.41015625 C-1.26171875 5.97265625 -1.26171875 5.97265625 -3.51171875 4.84765625 C-7.70643866 7.93015127 -7.70643866 7.93015127 -10.57421875 12.09765625 C-11.51171875 13.84765625 -11.51171875 13.84765625 -13.94921875 14.59765625 C-16.51171875 14.84765625 -16.51171875 14.84765625 -19.51171875 14.84765625 C-19.84171875 13.85765625 -20.17171875 12.86765625 -20.51171875 11.84765625 C-18.27211881 8.48825633 -16.72923748 7.6819285 -13.19921875 5.84765625 C-10.34935083 4.35468315 -7.62084975 2.92275715 -4.96875 1.09765625 C-2.51171875 -0.15234375 -2.51171875 -0.15234375 0 0 Z " fill="#2E9FC9" transform="translate(281.51171875,33.15234375)"/>
<path d="M0 0 C0 20.46 0 40.92 0 62 C-0.33 62 -0.66 62 -1 62 C-1.33 42.53 -1.66 23.06 -2 3 C-4.64 4.98 -7.28 6.96 -10 9 C-12.828125 10.609375 -12.828125 10.609375 -15.25 11.75 C-16.05953125 12.13671875 -16.8690625 12.5234375 -17.703125 12.921875 C-18.84007812 13.45554688 -18.84007812 13.45554688 -20 14 C-20.67546875 14.39703125 -21.3509375 14.7940625 -22.046875 15.203125 C-24.46671381 16.19041923 -25.5490975 15.71755492 -28 15 C-27.49662109 14.72325439 -26.99324219 14.44650879 -26.47460938 14.16137695 C-24.14844214 12.88075899 -21.82421943 11.59664945 -19.5 10.3125 C-18.31277344 9.65991211 -18.31277344 9.65991211 -17.1015625 8.99414062 C-12.49698744 6.44652737 -8.01061354 3.79639102 -3.61132812 0.90698242 C-2 0 -2 0 0 0 Z " fill="#4993C8" transform="translate(262,154)"/>
<path d="M0 0 C0.33 0 0.66 0 1 0 C1.06948567 7.90156605 1.12280364 15.80300463 1.15543652 23.70480061 C1.17109805 27.37386676 1.19234475 31.04272401 1.22631836 34.71166992 C1.25889514 38.25188947 1.27684934 41.79190799 1.28463173 45.33226585 C1.29287924 47.34147655 1.31630137 49.35060628 1.33988953 51.35969543 C1.34011612 52.58073471 1.34034271 53.80177399 1.34057617 55.05981445 C1.34723801 56.13681107 1.35389984 57.21380768 1.36076355 58.32344055 C1 61 1 61 -0.37016296 62.77970886 C-2.53870551 64.40333944 -4.79543316 65.66555473 -7.1875 66.9375 C-8.156875 67.45441406 -9.12625 67.97132813 -10.125 68.50390625 C-13.72987655 70.37981348 -17.35159598 72.2102169 -21 74 C-21 72.68 -21 71.36 -21 70 C-19.73308493 69.32591692 -18.46129251 68.66099503 -17.1875 68 C-16.47980469 67.62875 -15.77210938 67.2575 -15.04296875 66.875 C-13 66 -13 66 -10 66 C-10 65.34 -10 64.68 -10 64 C-6.535 63.505 -6.535 63.505 -3 63 C-2.67 61.68 -2.34 60.36 -2 59 C-1.34 59 -0.68 59 0 59 C0 39.53 0 20.06 0 0 Z " fill="#4778BE" transform="translate(474,310)"/>
<path d="M0 0 C-0.08708669 1.45945288 -0.19526907 2.91765868 -0.3125 4.375 C-0.39951172 5.59316406 -0.39951172 5.59316406 -0.48828125 6.8359375 C-1 9 -1 9 -4 11 C-4.66 10.67 -5.32 10.34 -6 10 C-6 9.34 -6 8.68 -6 8 C-10.455 8.495 -10.455 8.495 -15 9 C-15.33 10.32 -15.66 11.64 -16 13 C-16.804375 13.12375 -17.60875 13.2475 -18.4375 13.375 C-19.283125 13.58125 -20.12875 13.7875 -21 14 C-21.33 14.66 -21.66 15.32 -22 16 C-22.66 16 -23.32 16 -24 16 C-24.66 16.99 -25.32 17.98 -26 19 C-28.3828125 19.73046875 -28.3828125 19.73046875 -31.125 20.1875 C-32.03507813 20.34605469 -32.94515625 20.50460938 -33.8828125 20.66796875 C-34.58148438 20.77753906 -35.28015625 20.88710937 -36 21 C-33.480756 18.17227714 -30.65063971 16.49558495 -27.375 14.625 C-26.3025 14.01011719 -25.23 13.39523438 -24.125 12.76171875 C-20.84006903 10.90983892 -17.54460867 9.07896728 -14.23828125 7.265625 C-10.79085079 5.31629259 -7.43010553 3.22652879 -4.06640625 1.13671875 C-2 0 -2 0 0 0 Z " fill="#3088B5" transform="translate(192,84)"/>
<path d="M0 0 C0.33 0 0.66 0 1 0 C1.33 23.1 1.66 46.2 2 70 C3.98 70.66 5.96 71.32 8 72 C8.33 72.99 8.66 73.98 9 75 C9.99 75.495 10.98 75.99 12 76.5 C12.99 76.995 13.98 77.49 15 78 C15.33 78.99 15.66 79.98 16 81 C13.625 80.375 13.625 80.375 10 79 C9.17263336 78.71462372 8.34526672 78.42924744 7.49282837 78.13522339 C4.37213307 76.74237635 2.34886496 75.50312984 0 73 C-1.44106906 67.4881833 -1.1668279 62.10346298 -0.9765625 56.4453125 C-0.95789648 54.81725415 -0.94366881 53.18913938 -0.9336853 51.56100464 C-0.89561414 47.2884033 -0.79749887 43.01923586 -0.68664551 38.74798584 C-0.5840958 34.38454652 -0.5386238 30.02054863 -0.48828125 25.65625 C-0.38123203 17.1025957 -0.21071366 8.55172568 0 0 Z " fill="#416FC8" transform="translate(182,244)"/>
<path d="M0 0 C2.475 0.495 2.475 0.495 5 1 C1.3929959 4.06293085 -2.24036106 6.32480432 -6.4375 8.5 C-9.82117839 10.25775501 -12.99947584 11.99963707 -16.13671875 14.171875 C-18.83201633 15.89274712 -20.2566478 16.53494123 -23.375 16.75 C-25.169375 16.87375 -25.169375 16.87375 -27 17 C-27 14.69 -27 12.38 -27 10 C-26.02417969 9.93941406 -25.04835937 9.87882812 -24.04296875 9.81640625 C-22.77066406 9.73261719 -21.49835938 9.64882812 -20.1875 9.5625 C-18.92292969 9.48128906 -17.65835938 9.40007812 -16.35546875 9.31640625 C-13.00818107 9.12815453 -13.00818107 9.12815453 -10 8 C-10 7.34 -10 6.68 -10 6 C-8.68 6 -7.36 6 -6 6 C-6 5.34 -6 4.68 -6 4 C-5.34 4 -4.68 4 -4 4 C-4 3.34 -4 2.68 -4 2 C-3.01 2 -2.02 2 -1 2 C-0.67 1.34 -0.34 0.68 0 0 Z " fill="#45A6D4" transform="translate(267,104)"/>
<path d="M0 0 C-3.42879004 2.87102453 -6.86898469 5.18667127 -10.78125 7.34765625 C-11.87050781 7.95287109 -12.95976562 8.55808594 -14.08203125 9.18164062 C-15.77392578 10.11266602 -15.77392578 10.11266602 -17.5 11.0625 C-19.7399208 12.30277615 -21.97951618 13.54364022 -24.21875 14.78515625 C-25.7027832 15.60318726 -25.7027832 15.60318726 -27.21679688 16.43774414 C-29.06496794 17.47515174 -30.88557166 18.56334713 -32.67382812 19.70092773 C-35 21 -35 21 -38 21 C-38 20.34 -38 19.68 -38 19 C-37.0925 18.5875 -36.185 18.175 -35.25 17.75 C-31.99341192 16.21740659 -31.99341192 16.21740659 -30 13.875 C-27.42856029 11.46427527 -25.43077843 11.44749284 -22 11 C-21.34 10.34 -20.68 9.68 -20 9 C-20.33 8.67 -20.66 8.34 -21 8 C-21.99 8.495 -21.99 8.495 -23 9 C-23 7.68 -23 6.36 -23 5 C-21.88625 5.020625 -20.7725 5.04125 -19.625 5.0625 C-16.16784079 5.26380718 -16.16784079 5.26380718 -14 4 C-11.875 4.4375 -11.875 4.4375 -10 5 C-10 4.34 -10 3.68 -10 3 C-7.45005662 -0.8999134 -4.30411395 -0.24362909 0 0 Z " fill="#4C72C6" transform="translate(351,332)"/>
<path d="M0 0 C0.598125 0.165 1.19625 0.33 1.8125 0.5 C4.11344336 1.1114124 4.11344336 1.1114124 7 1 C4.04668979 4.21185654 1.08351155 6.2937336 -2.71875 8.41796875 C-4.36423828 9.33932617 -4.36423828 9.33932617 -6.04296875 10.27929688 C-7.75419922 11.22385742 -7.75419922 11.22385742 -9.5 12.1875 C-10.64082031 12.82880859 -11.78164063 13.47011719 -12.95703125 14.13085938 C-22.91379365 19.67084409 -22.91379365 19.67084409 -26 20 C-28.25 18.0625 -28.25 18.0625 -30 16 C-28.783125 16.04125 -27.56625 16.0825 -26.3125 16.125 C-22.78706132 16.11874922 -20.1184951 15.79549718 -17 14 C-16.67 13.01 -16.34 12.02 -16 11 C-14.68 11 -13.36 11 -12 11 C-12 10.34 -12 9.68 -12 9 C-8.37802806 7.50859979 -4.72433382 6.2125738 -1 5 C-0.67 3.35 -0.34 1.7 0 0 Z " fill="#4B6AC4" transform="translate(305,353)"/>
<path d="M0 0 C0.66 0.33 1.32 0.66 2 1 C1.01 2.485 1.01 2.485 0 4 C0 4.66 0 5.32 0 6 C-6.75 8 -6.75 8 -9 8 C-12.55379978 10.51179038 -12.55379978 10.51179038 -15 14 C-15.66 14 -16.32 14 -17 14 C-17 14.66 -17 15.32 -17 16 C-17.78375 15.814375 -18.5675 15.62875 -19.375 15.4375 C-21.97089775 14.74037734 -21.97089775 14.74037734 -24 16 C-24.66 15.34 -25.32 14.68 -26 14 C-25.01 14 -24.02 14 -23 14 C-23 13.01 -23 12.02 -23 11 C-17.79732355 7.6892059 -12.67502304 5.79368468 -6.76953125 4.02734375 C-4.05010019 3.01858442 -2.20540722 1.85801611 0 0 Z " fill="#33A3D6" transform="translate(215,72)"/>
<path d="M0 0 C-6.70325529 4.10896658 -13.51238536 8.00872269 -20.37695312 11.83959961 C-21.03244141 12.20577393 -21.68792969 12.57194824 -22.36328125 12.94921875 C-22.98928223 13.29645996 -23.6152832 13.64370117 -24.26025391 14.00146484 C-25.80518086 14.88818267 -27.30349867 15.85502221 -28.79296875 16.83203125 C-29.52128906 17.21746094 -30.24960937 17.60289062 -31 18 C-31.99 17.67 -32.98 17.34 -34 17 C-32.68 16.67 -31.36 16.34 -30 16 C-30 15.34 -30 14.68 -30 14 C-29.34 14 -28.68 14 -28 14 C-28 13.01 -28 12.02 -28 11 C-27.01 11 -26.02 11 -25 11 C-24.67 10.01 -24.34 9.02 -24 8 C-22.7934375 7.7834375 -22.7934375 7.7834375 -21.5625 7.5625 C-19.07896294 7.25864751 -19.07896294 7.25864751 -18 6 C-16.33382885 5.95936168 -14.66611905 5.957279 -13 6 C-13 5.34 -13 4.68 -13 4 C-12.01 4 -11.02 4 -10 4 C-10 3.34 -10 2.68 -10 2 C-9.34 2 -8.68 2 -8 2 C-8 1.34 -8 0.68 -8 0 C-4.90645403 -0.99435406 -3.09720845 -0.87840996 0 0 Z " fill="#3D58A9" transform="translate(452,385)"/>
<path d="M0 0 C1.32 0 2.64 0 4 0 C4 0.66 4 1.32 4 2 C5.32 2.33 6.64 2.66 8 3 C8.33 4.32 8.66 5.64 9 7 C10.134375 7.12375 11.26875 7.2475 12.4375 7.375 C13.613125 7.58125 14.78875 7.7875 16 8 C16.33 8.66 16.66 9.32 17 10 C19.64 9.67 22.28 9.34 25 9 C26.0625 11.375 26.0625 11.375 27 14 C26.67 14.66 26.34 15.32 26 16 C25.34 16 24.68 16 24 16 C24 15.34 24 14.68 24 14 C23.22398437 14.12375 22.44796875 14.2475 21.6484375 14.375 C16.12974115 13.80776783 12.24831725 10.92832077 7.625 8 C6.69816406 7.42765625 5.77132813 6.8553125 4.81640625 6.265625 C2.53662312 4.85544987 0.26519008 3.43345549 -2 2 C-1.34 1.34 -0.68 0.68 0 0 Z " fill="#40A3D6" transform="translate(375,152)"/>
<path d="M0 0 C0.33 0 0.66 0 1 0 C1 6.6 1 13.2 1 20 C2.65 20 4.3 20 6 20 C6 20.66 6 21.32 6 22 C7.32 22 8.64 22 10 22 C10 23.32 10 24.64 10 26 C11.92022703 27.77409808 11.92022703 27.77409808 14 29 C7.87508056 28.50000658 5.7809966 27.30342663 0 24 C0 16.08 0 8.16 0 0 Z " fill="#4146B1" transform="translate(86,348)"/>
<path d="M0 0 C3.65564909 0.68761019 6.51867272 2.25449545 9.75 4.0625 C10.73484375 4.61035156 11.7196875 5.15820312 12.734375 5.72265625 C13.48203125 6.14417969 14.2296875 6.56570312 15 7 C14.67 7.99 14.34 8.98 14 10 C12.54077307 9.88590407 11.08259402 9.75834456 9.625 9.625 C8.81289063 9.55539063 8.00078125 9.48578125 7.1640625 9.4140625 C5 9 5 9 3 7 C2.01 7.33 1.02 7.66 0 8 C-0.98120464 4.94736336 -0.98120464 3.05263664 0 0 Z " fill="#3196BD" transform="translate(344,70)"/>
<path d="M0 0 C1.32 0 2.64 0 4 0 C4 6.6 4 13.2 4 20 C-0.62 22.64 -5.24 25.28 -10 28 C-9.67 26.68 -9.34 25.36 -9 24 C-7.68 23.67 -6.36 23.34 -5 23 C-5 22.34 -5 21.68 -5 21 C-1.535 20.505 -1.535 20.505 2 20 C1.814375 18.906875 1.62875 17.81375 1.4375 16.6875 C0.75311778 11.39304307 1.36969274 6.27518692 2 1 C1.34 0.67 0.68 0.34 0 0 Z " fill="#4979C7" transform="translate(376,296)"/>
<path d="M0 0 C5 2 5 2 7 4 C4.03 3.505 4.03 3.505 1 3 C1 22.47 1 41.94 1 62 C0.67 62 0.34 62 0 62 C0 41.54 0 21.08 0 0 Z " fill="#538FBA" transform="translate(299,154)"/>
<path d="M0 0 C1.65 0 3.3 0 5 0 C2.74534233 2.45647318 0.44154514 4.05012526 -2.44921875 5.69921875 C-3.29677734 6.18583984 -4.14433594 6.67246094 -5.01757812 7.17382812 C-5.89865234 7.67333984 -6.77972656 8.17285156 -7.6875 8.6875 C-8.58017578 9.19861328 -9.47285156 9.70972656 -10.39257812 10.23632812 C-12.59264265 11.49518858 -14.79514447 12.74955596 -17 14 C-17.33 13.01 -17.66 12.02 -18 11 C-17.34 11 -16.68 11 -16 11 C-15.67 10.01 -15.34 9.02 -15 8 C-12.01540871 6.04457812 -10.73585209 6 -7 6 C-7 4.35 -7 2.7 -7 1 C-4.69 1 -2.38 1 0 1 C0 0.67 0 0.34 0 0 Z " fill="#4593D2" transform="translate(183,153)"/>
<path d="M0 0 C0 0.66 0 1.32 0 2 C-1.96498322 3.38442 -3.97048465 4.71203834 -6 6 C-6.62390625 6.4846875 -7.2478125 6.969375 -7.890625 7.46875 C-10.17067153 9.12389489 -12.46767078 10.33107771 -15 11.5625 C-15.845625 11.97628906 -16.69125 12.39007813 -17.5625 12.81640625 C-18.366875 13.20699219 -19.17125 13.59757813 -20 14 C-20.680625 14.40089844 -21.36125 14.80179688 -22.0625 15.21484375 C-24.46943551 16.19023496 -25.56329237 15.71207841 -28 15 C-27.49662109 14.72325439 -26.99324219 14.44650879 -26.47460938 14.16137695 C-24.14844214 12.88075899 -21.82421943 11.59664945 -19.5 10.3125 C-18.31277344 9.65991211 -18.31277344 9.65991211 -17.1015625 8.99414062 C-12.49698744 6.44652737 -8.01061354 3.79639102 -3.61132812 0.90698242 C-2 0 -2 0 0 0 Z " fill="#509CCF" transform="translate(262,154)"/>
<path d="M0 0 C2.45703125 1.19140625 2.45703125 1.19140625 4.8125 2.5625 C5.60269531 3.01753906 6.39289063 3.47257812 7.20703125 3.94140625 C7.79871094 4.29074219 8.39039063 4.64007813 9 5 C9 5.33 9 5.66 9 6 C7.35 6 5.7 6 4 6 C4 5.34 4 4.68 4 4 C2.72125 4.185625 1.4425 4.37125 0.125 4.5625 C-3.75 5.125 -3.75 5.125 -6 4 C-7.99960012 3.960008 -10.00047242 3.95653201 -12 4 C-5.33168229 -1.43994339 -5.33168229 -1.43994339 0 0 Z " fill="#2D8EAD" transform="translate(284,34)"/>
<path d="M0 0 C1.32 0.66 2.64 1.32 4 2 C1.54481265 3.50537035 -0.9138452 5.00444426 -3.375 6.5 C-4.07367188 6.92925781 -4.77234375 7.35851562 -5.4921875 7.80078125 C-10.7734375 11 -10.7734375 11 -13 11 C-13 10.01 -13 9.02 -13 8 C-12.34 8 -11.68 8 -11 8 C-11 7.34 -11 6.68 -11 6 C-8.92137387 3.45945695 -7.535929 2.16588279 -4.375 1.1875 C-2 1 -2 1 0 2 C0 1.34 0 0.68 0 0 Z " fill="#3B51AB" transform="translate(403,409)"/>
<path d="M0 0 C0.99 0 1.98 0 3 0 C1.52398191 3.93604824 -0.44517469 5.1139614 -4.125 7 C-5.10339844 7.50789063 -6.08179688 8.01578125 -7.08984375 8.5390625 C-8.05019531 9.02117187 -9.01054687 9.50328125 -10 10 C-11.23943359 10.63035156 -11.23943359 10.63035156 -12.50390625 11.2734375 C-14.32980386 12.19455222 -16.16394835 13.09929542 -18 14 C-18 12.68 -18 11.36 -18 10 C-16.73308493 9.32591692 -15.46129251 8.66099503 -14.1875 8 C-13.47980469 7.62875 -12.77210938 7.2575 -12.04296875 6.875 C-10 6 -10 6 -7 6 C-7 5.34 -7 4.68 -7 4 C-3.535 3.505 -3.535 3.505 0 3 C0 2.01 0 1.02 0 0 Z " fill="#3D59A0" transform="translate(471,370)"/>
<path d="M0 0 C0.66 0.33 1.32 0.66 2 1 C1.2265625 2.175625 1.2265625 2.175625 0.4375 3.375 C-0.036875 4.24125 -0.51125 5.1075 -1 6 C-0.67 6.66 -0.34 7.32 0 8 C-0.33 8.66 -0.66 9.32 -1 10 C-3.0625 10.625 -3.0625 10.625 -5 11 C-5 10.34 -5 9.68 -5 9 C-7.64 9 -10.28 9 -13 9 C-10.59497637 6.36479259 -7.9814151 4.59697057 -4.9375 2.75 C-4.05964844 2.20859375 -3.18179688 1.6671875 -2.27734375 1.109375 C-1.52582031 0.74328125 -0.77429688 0.3771875 0 0 Z " fill="#408DD2" transform="translate(213,181)"/>
<path d="M0 0 C0.125 2.375 0.125 2.375 0 5 C-3.00617269 8.00617269 -5.82381598 7.59585316 -10 8 C-10 5.69 -10 3.38 -10 1 C-8.5209084 0.83266843 -7.04172444 0.66615314 -5.5625 0.5 C-4.32693359 0.36078125 -4.32693359 0.36078125 -3.06640625 0.21875 C-1 0 -1 0 0 0 Z " fill="#36A0DA" transform="translate(250,113)"/>
<path d="M0 0 C0.33 0.66 0.66 1.32 1 2 C-5.07439825 7.88183807 -5.07439825 7.88183807 -8.9375 8.375 C-9.618125 8.25125 -10.29875 8.1275 -11 8 C-11 8.66 -11 9.32 -11 10 C-17.96428571 13.34821429 -17.96428571 13.34821429 -22 12 C-21.31035156 11.62488281 -20.62070313 11.24976563 -19.91015625 10.86328125 C-14.51849719 7.92708283 -9.13675894 4.97515102 -3.77734375 1.98046875 C-2.53251202 1.29375938 -1.27158981 0.63579491 0 0 Z " fill="#3976A4" transform="translate(120,125)"/>
<path d="M0 0 C2 1 2 1 2 1 Z M0 1 C-0.33 1.66 -0.66 2.32 -1 3 C-3.31847874 3.7166207 -5.65319703 4.38242027 -8 5 C-8.99 5.495 -8.99 5.495 -10 6 C-9.6875 4.0625 -9.6875 4.0625 -9 2 C-5.8035914 0.93453047 -3.34252724 0.92572162 0 1 Z M-10 6 C-10 6.99 -10 7.98 -10 9 C-10.99 9 -11.98 9 -13 9 C-13 10.32 -13 11.64 -13 13 C-15.97 12.505 -15.97 12.505 -19 12 C-18.8125 10.125 -18.8125 10.125 -18 8 C-15.10888212 6.47835901 -13.28176588 6 -10 6 Z " fill="#359EDA" transform="translate(186,91)"/>
<path d="M0 0 C0 0.66 0 1.32 0 2 C-2.5 3.5 -2.5 3.5 -5 5 C-5.78375 5.845625 -6.5675 6.69125 -7.375 7.5625 C-10.51035961 10.47390535 -12.8197136 11.23994793 -17 12 C-19.21484375 11.5390625 -19.21484375 11.5390625 -21 11 C-18.0444016 9.27226104 -15.08773679 7.54641881 -12.12890625 5.82421875 C-10.32084839 4.77008264 -8.5149073 3.71226125 -6.71484375 2.64453125 C-2.21818592 0 -2.21818592 0 0 0 Z " fill="#2E87A9" transform="translate(246,53)"/>
<path d="M0 0 C1.65 0 3.3 0 5 0 C5 0.99 5 1.98 5 3 C6.32 2.67 7.64 2.34 9 2 C9.33 3.32 9.66 4.64 10 6 C10.598125 5.814375 11.19625 5.62875 11.8125 5.4375 C14 5 14 5 17 6 C17.6875 8.0625 17.6875 8.0625 18 10 C13.1519507 9.46860721 9.80590761 8.04523649 5.625 5.5625 C4.56539062 4.94503906 3.50578125 4.32757813 2.4140625 3.69140625 C1.61742187 3.13324219 0.82078125 2.57507813 0 2 C0 1.34 0 0.68 0 0 Z " fill="#3E3B9F" transform="translate(215,444)"/>
<path d="M0 0 C0 0.66 0 1.32 0 2 C-0.99 2 -1.98 2 -3 2 C-3.33 2.99 -3.66 3.98 -4 5 C-6.5625 6.4375 -6.5625 6.4375 -10 8 C-11.3550519 8.70663839 -12.70919266 9.41502626 -14.0625 10.125 C-17.02257602 11.6135603 -19.68042081 12.5850526 -23 13 C-21.5973083 10.1946166 -19.76142401 9.64108291 -17 8.1875 C-12.5472543 5.82470013 -8.14703651 3.39558338 -3.77734375 0.8828125 C-2 0 -2 0 0 0 Z " fill="#328AA8" transform="translate(224,66)"/>
<path d="M0 0 C1.98 0.99 1.98 0.99 4 2 C4 14.54 4 27.08 4 40 C3.67 40 3.34 40 3 40 C2.96241577 38.74509766 2.96241577 38.74509766 2.92407227 37.46484375 C2.82827164 34.32623274 2.72908345 31.18775119 2.62768555 28.04931641 C2.56367259 26.03686399 2.5034803 24.0242912 2.44335938 22.01171875 C2.27972122 10.84963321 2.27972122 10.84963321 0 0 Z " fill="#DAFBFF" transform="translate(413,177)"/>
<path d="M0 0 C7.75 0.875 7.75 0.875 10 2 C10 1.34 10 0.68 10 0 C11.32 0.33 12.64 0.66 14 1 C13.34 1.66 12.68 2.32 12 3 C12.66 3.33 13.32 3.66 14 4 C14 5.32 14 6.64 14 8 C8.76481294 6.56032356 4.36973991 4.18303389 0 1 C0 0.67 0 0.34 0 0 Z " fill="#44A5D4" transform="translate(345,137)"/>
<path d="M0 0 C-0.99 0.66 -1.98 1.32 -3 2 C-3.72965366 4.56282742 -3.72965366 4.56282742 -4 7 C-6.31 7.66 -8.62 8.32 -11 9 C-11.33 8.34 -11.66 7.68 -12 7 C-11.34 7 -10.68 7 -10 7 C-9.95875 6.236875 -9.9175 5.47375 -9.875 4.6875 C-9 2 -9 2 -6.125 0.125 C-3 -1 -3 -1 0 0 Z " fill="#4574CE" transform="translate(411,343)"/>
<path d="M0 0 C2.23310552 1.07575855 4.46124501 2.16022483 6.6875 3.25 C7.31333984 3.55035156 7.93917969 3.85070312 8.58398438 4.16015625 C12.45438826 6.06496235 15.7119061 8.15828214 19 11 C18.01 11.33 17.02 11.66 16 12 C13.3237055 10.59142395 10.89040977 8.92693985 8.375 7.25 C7.59125 6.8375 6.8075 6.425 6 6 C5.01 6.33 4.02 6.66 3 7 C2.67 6.34 2.34 5.68 2 5 C1.34 4.67 0.68 4.34 0 4 C0 2.68 0 1.36 0 0 Z " fill="#4F5FC2" transform="translate(239,392)"/>
<path d="M0 0 C0.99 0.33 1.98 0.66 3 1 C3 1.66 3 2.32 3 3 C5.31 2.34 7.62 1.68 10 1 C10.66 3.64 11.32 6.28 12 9 C6.68972746 7.53967505 2.53669968 5.01679014 -2 2 C-1.34 1.34 -0.68 0.68 0 0 Z " fill="#3AA1D7" transform="translate(361,144)"/>
<path d="M0 0 C7.61644202 1.24859705 13.38827536 4.07004031 20 8 C16.90226756 8.84062397 14.21667249 9.08935201 11 9 C11 8.01 11 7.02 11 6 C10.01 5.67 9.02 5.34 8 5 C8 4.34 8 3.68 8 3 C5.36 3 2.72 3 0 3 C0 2.01 0 1.02 0 0 Z " fill="#439CD2" transform="translate(300,157)"/>
<path d="M0 0 C2.31625061 1.11777771 4.62784605 2.24374092 6.9375 3.375 C7.59685547 3.69210938 8.25621094 4.00921875 8.93554688 4.3359375 C13.88671875 6.7734375 13.88671875 6.7734375 15 9 C10.22423661 8.5317879 6.95523655 7.75668002 3 5 C2.34 5.66 1.68 6.32 1 7 C-1.125 6.625 -1.125 6.625 -3 6 C-2.01 5.67 -1.02 5.34 0 5 C0 3.35 0 1.7 0 0 Z " fill="#3085A1" transform="translate(309,49)"/>
<path d="M0 0 C3.5742977 0.32493615 5.55712453 0.63870686 8.375 2.9375 C10 5 10 5 10 7 C9.34 7 8.68 7 8 7 C8 6.34 8 5.68 8 5 C4.72724974 5 2.153368 5.29925156 -1 6 C-0.67 4.02 -0.34 2.04 0 0 Z " fill="#349CC2" transform="translate(321,58)"/>
<path d="M0 0 C3.9492568 0.55105909 7.34920174 1.38935371 11 3 C11 3.66 11 4.32 11 5 C11.598125 5.12375 12.19625 5.2475 12.8125 5.375 C15 6 15 6 18 8 C18 8.66 18 9.32 18 10 C13.48548686 8.6510689 9.67722719 6.83381706 5.625 4.4375 C4.56539062 3.81746094 3.50578125 3.19742187 2.4140625 2.55859375 C1.61742187 2.04425781 0.82078125 1.52992188 0 1 C0 0.67 0 0.34 0 0 Z " fill="#37328D" transform="translate(230,454)"/>
<path d="M0 0 C2.97 0.33 5.94 0.66 9 1 C5.74190431 4.25809569 3.04733782 5.86594915 -1 8 C-1.66 8 -2.32 8 -3 8 C-1.125 2.25 -1.125 2.25 0 0 Z " fill="#3E56AE" transform="translate(410,402)"/>
<path d="M0 0 C0.66 0.33 1.32 0.66 2 1 C2 1.66 2 2.32 2 3 C1.34 3 0.68 3 0 3 C-0.33 3.66 -0.66 4.32 -1 5 C-1.66 5 -2.32 5 -3 5 C-3.99 6.485 -3.99 6.485 -5 8 C-7.3828125 8.73046875 -7.3828125 8.73046875 -10.125 9.1875 C-11.03507813 9.34605469 -11.94515625 9.50460938 -12.8828125 9.66796875 C-13.58148438 9.77753906 -14.28015625 9.88710937 -15 10 C-12.38221206 7.0447272 -9.32416665 5.24167273 -5.9375 3.25 C-4.87402344 2.61578125 -3.81054688 1.9815625 -2.71484375 1.328125 C-1.81894531 0.88984375 -0.92304688 0.4515625 0 0 Z " fill="#317BA3" transform="translate(171,95)"/>
<path d="M0 0 C0.99 0 1.98 0 3 0 C3.66 0.99 4.32 1.98 5 3 C6.96361864 3.57748803 6.96361864 3.57748803 9.125 3.6875 C10.40375 3.790625 11.6825 3.89375 13 4 C12.67 4.99 12.34 5.98 12 7 C12.66 7 13.32 7 14 7 C14 7.66 14 8.32 14 9 C13.01 9 12.02 9 11 9 C11 8.34 11 7.68 11 7 C9.35 7 7.7 7 6 7 C6 6.34 6 5.68 6 5 C5.401875 4.71125 4.80375 4.4225 4.1875 4.125 C2 3 2 3 -1 1 C-0.67 0.67 -0.34 0.34 0 0 Z " fill="#403FBD" transform="translate(178,421)"/>
<path d="M0 0 C0.7734375 0.61875 0.7734375 0.61875 1.5625 1.25 C-6.15178571 7.25 -6.15178571 7.25 -10.4375 7.25 C-10.375 5.5 -10.375 5.5 -9.4375 3.25 C-6.4494236 0.78090529 -3.85093485 -1.18490303 0 0 Z " fill="#3E4CA3" transform="translate(387.4375,419.75)"/>
<path d="M0 0 C1.98 0 3.96 0 6 0 C6.33 0.99 6.66 1.98 7 3 C7.99 3.495 8.98 3.99 10 4.5 C10.99 4.995 11.98 5.49 13 6 C13.33 6.99 13.66 7.98 14 9 C8.8423143 7.58163643 4.20024742 5.32608425 0 2 C0 1.34 0 0.68 0 0 Z " fill="#5372C1" transform="translate(184,316)"/>
<path d="M0 0 C0 0.66 0 1.32 0 2 C-0.94875 2.37125 -1.8975 2.7425 -2.875 3.125 C-6.25553808 4.73995905 -6.25553808 4.73995905 -7.375 8.1875 C-7.58125 9.115625 -7.7875 10.04375 -8 11 C-9.32 11 -10.64 11 -12 11 C-11.62403791 8.21788056 -11.32681541 6.4120716 -9.5625 4.1875 C-8 3 -8 3 -6 3 C-6 2.34 -6 1.68 -6 1 C-3.92446352 0.4465236 -2.15634036 0 0 0 Z " fill="#3792D8" transform="translate(127,124)"/>
<path d="M0 0 C-3.70060219 3.97472087 -6.72680102 6.87132836 -12.3125 7.1875 C-13.6428125 7.0946875 -13.6428125 7.0946875 -15 7 C-12.62624557 4.25144224 -10.33642103 3.3170083 -7 2 C-6.67 1.34 -6.34 0.68 -6 0 C-2.49056604 -1.24528302 -2.49056604 -1.24528302 0 0 Z " fill="#413FA8" transform="translate(319,460)"/>
<path d="M0 0 C-1.29813778 2.89584583 -2.53303749 4.98157613 -5 7 C-7.26171875 7.51171875 -7.26171875 7.51171875 -9.6875 7.6875 C-10.49574219 7.75324219 -11.30398437 7.81898438 -12.13671875 7.88671875 C-13.05904297 7.94279297 -13.05904297 7.94279297 -14 8 C-11.72402354 5.50447597 -9.39278822 3.93377014 -6.4375 2.3125 C-5.65246094 1.87550781 -4.86742187 1.43851563 -4.05859375 0.98828125 C-2 0 -2 0 0 0 Z " fill="#5391CE" transform="translate(200,190)"/>
<path d="M0 0 C1.32 0.33 2.64 0.66 4 1 C3.34 1.61875 2.68 2.2375 2 2.875 C-0.2284549 4.75637427 -0.2284549 4.75637427 0 7 C-0.969375 7.28875 -1.93875 7.5775 -2.9375 7.875 C-6.10664203 8.64214682 -6.10664203 8.64214682 -7 11 C-7.66 10.67 -8.32 10.34 -9 10 C-5.25 4.25 -5.25 4.25 -3 2 C-2.01 2 -1.02 2 0 2 C0 1.34 0 0.68 0 0 Z " fill="#2FADDB" transform="translate(246,53)"/>
<path d="M0 0 C0.66 0.33 1.32 0.66 2 1 C0.625 3 0.625 3 -1 5 C-1.66 5 -2.32 5 -3 5 C-3 5.66 -3 6.32 -3 7 C-4.96147874 8.38938077 -6.96166576 9.7260411 -9 11 C-9.33 9.35 -9.66 7.7 -10 6 C-9.36191406 5.65066406 -8.72382812 5.30132812 -8.06640625 4.94140625 C-7.24011719 4.48636719 -6.41382812 4.03132812 -5.5625 3.5625 C-4.73878906 3.11003906 -3.91507812 2.65757812 -3.06640625 2.19140625 C-1.07691202 1.16337603 -1.07691202 1.16337603 0 0 Z " fill="#3671A7" transform="translate(96,138)"/>
<path d="M0 0 C3.19465269 -0.27382737 4.59779229 -0.29048335 7.25 1.625 C11.39959564 3.69979782 14.70952626 2.29929379 19 1 C17.44288747 4.11422506 15.15309849 4.7266333 12 6 C7.376518 5.88144918 3.85784026 3.34496173 0 1 C0 0.67 0 0.34 0 0 Z " fill="#3A308B" transform="translate(270,477)"/>
<path d="M0 0 C1.0625 2.375 1.0625 2.375 2 5 C1.67 5.66 1.34 6.32 1 7 C0.34 7 -0.32 7 -1 7 C-1 6.34 -1 5.68 -1 5 C-2.98 5 -4.96 5 -7 5 C-7.33 4.01 -7.66 3.02 -8 2 C-2.25 0 -2.25 0 0 0 Z " fill="#36A1DC" transform="translate(400,161)"/>
<path d="M0 0 C-5.64524422 5.80205656 -5.64524422 5.80205656 -9 8 C-9.66 8 -10.32 8 -11 8 C-11 6.68 -11 5.36 -11 4 C-10.01 4 -9.02 4 -8 4 C-8 3.01 -8 2.02 -8 1 C-2.25 -1.125 -2.25 -1.125 0 0 Z " fill="#37A5CD" transform="translate(232,64)"/>
<path d="M0 0 C6.47556391 0.61090226 6.47556391 0.61090226 8.9375 2.4375 C10 4 10 4 10 6 C10.598125 6.103125 11.19625 6.20625 11.8125 6.3125 C14.28243264 7.08876455 15.32251235 8.07088921 17 10 C13.90471274 9.3795638 11.69868287 8.34765416 9.0625 6.625 C6.72702927 5.11458341 4.40419646 3.65244793 2 2.25 C1.34 1.8375 0.68 1.425 0 1 C0 0.67 0 0.34 0 0 Z " fill="#383797" transform="translate(167,417)"/>
<path d="M0 0 C0.66 0.33 1.32 0.66 2 1 C-1.36132396 4.65791137 -4.329378 7.21125115 -9 9 C-11.18359375 8.5703125 -11.18359375 8.5703125 -13 8 C-10.880788 6.63594382 -8.75551882 5.28368225 -6.625 3.9375 C-6.02171875 3.54755859 -5.4184375 3.15761719 -4.796875 2.75585938 C-3.23507443 1.77539568 -1.62007786 0.88083925 0 0 Z " fill="#3475A4" transform="translate(150,107)"/>
<path d="M0 0 C2.64 0 5.28 0 8 0 C8.66 1.98 9.32 3.96 10 6 C9.01 6.33 8.02 6.66 7 7 C6.34 6.01 5.68 5.02 5 4 C3.34738161 2.97695052 1.68208635 1.97383946 0 1 C0 0.67 0 0.34 0 0 Z " fill="#4341C9" transform="translate(159,410)"/>
<path d="M0 0 C4.68443012 0.58555377 9.12405031 2.30480319 13 5 C14.23828125 7.13671875 14.23828125 7.13671875 15 9 C11.32305352 7.62859834 8.04681411 5.96304199 4.6875 3.9375 C3.80449219 3.41027344 2.92148438 2.88304687 2.01171875 2.33984375 C1.34785156 1.89769531 0.68398437 1.45554687 0 1 C0 0.67 0 0.34 0 0 Z " fill="#383991" transform="translate(130,396)"/>
<path d="M0 0 C-0.33 0.99 -0.66 1.98 -1 3 C-1.99 3 -2.98 3 -4 3 C-4 11.25 -4 19.5 -4 28 C-4.33 28 -4.66 28 -5 28 C-5.0867562 23.70845978 -5.1403089 19.41714332 -5.1875 15.125 C-5.21263672 13.90167969 -5.23777344 12.67835938 -5.26367188 11.41796875 C-5.27333984 10.25136719 -5.28300781 9.08476562 -5.29296875 7.8828125 C-5.3086792 6.80402832 -5.32438965 5.72524414 -5.34057617 4.61376953 C-5.22818604 3.75122559 -5.1157959 2.88868164 -5 2 C-2 0 -2 0 0 0 Z " fill="#4B88C3" transform="translate(186,198)"/>
<path d="M0 0 C0.33 0.66 0.66 1.32 1 2 C0.34 2 -0.32 2 -1 2 C-1 2.99 -1 3.98 -1 5 C-3.90600261 6.25664978 -5.79604584 7 -9 7 C-7.84826645 4.53199953 -6.95216435 2.95216435 -5 1 C-2.375 0.375 -2.375 0.375 0 0 Z " fill="#4238C5" transform="translate(290,473)"/>
<path d="M0 0 C2.31625061 1.11777771 4.62784605 2.24374092 6.9375 3.375 C7.59685547 3.69210938 8.25621094 4.00921875 8.93554688 4.3359375 C13.88671875 6.7734375 13.88671875 6.7734375 15 9 C6.032 7.024 6.032 7.024 2 4 C2 3.34 2 2.68 2 2 C1.34 2 0.68 2 0 2 C0 1.34 0 0.68 0 0 Z " fill="#2B839E" transform="translate(451,131)"/>
<path d="M0 0 C2.64 0.66 5.28 1.32 8 2 C8.33 4.31 8.66 6.62 9 9 C7.125 8.75 7.125 8.75 5 8 C3.9375 6.125 3.9375 6.125 3 4 C2.01904252 2.98131338 1.02297922 1.97648017 0 1 C0 0.67 0 0.34 0 0 Z " fill="#35A7D9" transform="translate(336,128)"/>
<path d="M0 0 C3.96 1.98 7.92 3.96 12 6 C9 8 9 8 6.875 7.8125 C6.25625 7.544375 5.6375 7.27625 5 7 C4.67 6.01 4.34 5.02 4 4 C1.99983534 2.79117904 1.99983534 2.79117904 0 2 C0 1.34 0 0.68 0 0 Z " fill="#449DD1" transform="translate(320,166)"/>
<path d="M0 0 C3.3 0.99 6.6 1.98 10 3 C9.01 3.99 8.02 4.98 7 6 C3 6 3 6 0 5 C0 3.35 0 1.7 0 0 Z " fill="#2FACDB" transform="translate(456,137)"/>
<path d="M0 0 C0.99 0 1.98 0 3 0 C3.33 0.99 3.66 1.98 4 3 C4.99 3.66 5.98 4.32 7 5 C7 5.66 7 6.32 7 7 C5.35 7.33 3.7 7.66 2 8 C0.74335022 5.09399739 0 3.20395416 0 0 Z " fill="#2EABDB" transform="translate(360,80)"/>
<path d="M0 0 C2.97 0.495 2.97 0.495 6 1 C5.67 1.99 5.34 2.98 5 4 C5.99 4.33 6.98 4.66 8 5 C6.35 5.66 4.7 6.32 3 7 C1.5 5.75 1.5 5.75 0 4 C0 2.68 0 1.36 0 0 Z " fill="#30ABD9" transform="translate(430,121)"/>
<path d="M0 0 C3.29680965 0.65784963 5.84117922 1.89420573 8.75 3.5625 C9.94882812 4.24505859 9.94882812 4.24505859 11.171875 4.94140625 C11.77515625 5.29074219 12.3784375 5.64007813 13 6 C10.60042386 6.84119973 9.35077442 7.11193544 6.89453125 6.328125 C6.20746094 5.97234375 5.52039063 5.6165625 4.8125 5.25 C4.11769531 4.90453125 3.42289062 4.5590625 2.70703125 4.203125 C1 3 1 3 0 0 Z " fill="#3387A5" transform="translate(363,81)"/>
<path d="M0 0 C-1.95245185 1.19714555 -3.91214997 2.38248074 -5.875 3.5625 C-6.96554687 4.22378906 -8.05609375 4.88507813 -9.1796875 5.56640625 C-10.57574219 6.27603516 -10.57574219 6.27603516 -12 7 C-12.66 6.67 -13.32 6.34 -14 6 C-9.65700453 1.28474778 -6.48245773 -1.89128788 0 0 Z " fill="#373B8C" transform="translate(331,455)"/>
<path d="M0 0 C0 0.99 0 1.98 0 3 C-0.99 3 -1.98 3 -3 3 C-3.33 3.66 -3.66 4.32 -4 5 C-6.0625 5.625 -6.0625 5.625 -8 6 C-8.33 4.68 -8.66 3.36 -9 2 C-5.86501708 0.14223235 -3.62528568 -0.20140476 0 0 Z " fill="#4566CC" transform="translate(352,377)"/>
<path d="M0 0 C0.99 0 1.98 0 3 0 C3 0.66 3 1.32 3 2 C5.31 2 7.62 2 10 2 C10.66 3.65 11.32 5.3 12 7 C7.24518354 6.42365861 4.02951788 4.44931479 0 2 C0 1.34 0 0.68 0 0 Z " fill="#4E68C2" transform="translate(262,361)"/>
<path d="M0 0 C-0.99 0.33 -1.98 0.66 -3 1 C-3.165 1.66 -3.33 2.32 -3.5 3 C-3.665 3.66 -3.83 4.32 -4 5 C-7.13349732 6.04449911 -7.98968256 5.93423645 -11 5 C-4.36842105 -2.18421053 -4.36842105 -2.18421053 0 0 Z " fill="#3A8CD4" transform="translate(104,138)"/>
<path d="M0 0 C-0.495 0.45375 -0.99 0.9075 -1.5 1.375 C-3.22609337 2.87635519 -3.22609337 2.87635519 -3 5 C-4.8125 6.0625 -4.8125 6.0625 -7 7 C-7.99 6.67 -8.98 6.34 -10 6 C-9.67 5.01 -9.34 4.02 -9 3 C-8.34 3 -7.68 3 -7 3 C-7 2.34 -7 1.68 -7 1 C-3.375 -1.125 -3.375 -1.125 0 0 Z " fill="#3599D9" transform="translate(163,104)"/>
<path d="M0 0 C3.96 1.98 3.96 1.98 8 4 C4 6 4 6 1 7 C0.67 7.66 0.34 8.32 0 9 C0 6.03 0 3.06 0 0 Z " fill="#419BD5" transform="translate(336,175)"/>
<path d="M0 0 C1.75215106 0.93347358 3.50163563 1.8719532 5.25 2.8125 C6.71179688 3.59560547 6.71179688 3.59560547 8.203125 4.39453125 C10.63355412 5.78965188 12.80787699 7.26195961 15 9 C14.01 9.33 13.02 9.66 12 10 C12 9.34 12 8.68 12 8 C11.13375 7.7525 10.2675 7.505 9.375 7.25 C5.78939936 5.92199976 3.03672013 4.31369152 0 2 C0 1.34 0 0.68 0 0 Z " fill="#DEF9FE" transform="translate(295,109)"/>
<path d="M0 0 C4.97209562 1.76429199 9.43438061 4.3939166 14 7 C10.28125 8.1171875 10.28125 8.1171875 7.75 7.0625 C6.88375 6.5365625 6.88375 6.5365625 6 6 C6 5.34 6 4.68 6 4 C4.35 3.67 2.7 3.34 1 3 C0.67 2.01 0.34 1.02 0 0 Z " fill="#318AA9" transform="translate(294,41)"/>
<path d="M0 0 C1.98 0 3.96 0 6 0 C6 0.66 6 1.32 6 2 C2.27034861 4.03435531 0.33094958 5 -4 5 C-3.67 4.01 -3.34 3.02 -3 2 C-2.01 2 -1.02 2 0 2 C0 1.34 0 0.68 0 0 Z " fill="#4145A9" transform="translate(332,449)"/>
<path d="M0 0 C0.33 0.66 0.66 1.32 1 2 C2.32 1.34 3.64 0.68 5 0 C5 0.99 5 1.98 5 3 C4.34 3 3.68 3 3 3 C2.67 3.66 2.34 4.32 2 5 C1.01 6.485 1.01 6.485 0 8 C-0.66 8 -1.32 8 -2 8 C-3.125 4.25 -3.125 4.25 -2 2 C-1.34 2 -0.68 2 0 2 C0 1.34 0 0.68 0 0 Z " fill="#3E5ACA" transform="translate(322,392)"/>
<path d="M0 0 C2.31 0.33 4.62 0.66 7 1 C7.33 2.32 7.66 3.64 8 5 C6 6 6 6 3.9375 5.6875 C2 5 2 5 1 3 C0.34 3 -0.32 3 -1 3 C-0.67 2.01 -0.34 1.02 0 0 Z " fill="#3D5FC8" transform="translate(254,353)"/>
<path d="M0 0 C3.3 0.33 6.6 0.66 10 1 C9.01 1.495 9.01 1.495 8 2 C7.67 2.99 7.34 3.98 7 5 C3.125 4.125 3.125 4.125 2 3 C1.01 3.495 1.01 3.495 0 4 C0 2.68 0 1.36 0 0 Z " fill="#3E6BCC" transform="translate(328,337)"/>
<path d="M0 0 C2.64 0.33 5.28 0.66 8 1 C8.33 2.32 8.66 3.64 9 5 C6.69 5 4.38 5 2 5 C0 1.125 0 1.125 0 0 Z " fill="#35A6D4" transform="translate(320,120)"/>
<path d="M0 0 C0.66 0.33 1.32 0.66 2 1 C1.01 2.485 1.01 2.485 0 4 C0 4.66 0 5.32 0 6 C-6.75 8.125 -6.75 8.125 -9 7 C-9 6.34 -9 5.68 -9 5 C-8.43410156 4.72285156 -7.86820313 4.44570312 -7.28515625 4.16015625 C-6.55167969 3.79792969 -5.81820312 3.43570313 -5.0625 3.0625 C-3.96615234 2.52302734 -3.96615234 2.52302734 -2.84765625 1.97265625 C-1.03750973 1.13628173 -1.03750973 1.13628173 0 0 Z " fill="#30A7DC" transform="translate(215,72)"/>
<path d="M0 0 C1.65 0 3.3 0 5 0 C5.33 1.65 5.66 3.3 6 5 C4.35 5.66 2.7 6.32 1 7 C0.31292445 4.50935112 0 2.62113708 0 0 Z " fill="#31ACDC" transform="translate(304,49)"/>
<path d="M0 0 C0.66 0.33 1.32 0.66 2 1 C1.8125 3.375 1.8125 3.375 1 6 C-1.5625 7.3125 -1.5625 7.3125 -4 8 C-4 6.68 -4 5.36 -4 4 C-3.34 4 -2.68 4 -2 4 C-2 3.01 -2 2.02 -2 1 C-1.34 0.67 -0.68 0.34 0 0 Z " fill="#3793D6" transform="translate(132,119)"/>
<path d="M0 0 C1.32 0 2.64 0 4 0 C4.33 1.32 4.66 2.64 5 4 C5.66 4 6.32 4 7 4 C6.67 4.66 6.34 5.32 6 6 C3.03 5.505 3.03 5.505 0 5 C0 3.35 0 1.7 0 0 Z " fill="#30ACDC" transform="translate(416,113)"/>
<path d="M0 0 C2.31 0.33 4.62 0.66 7 1 C6 3 6 3 4 5 C1.375 4.625 1.375 4.625 -1 4 C-0.67 2.68 -0.34 1.36 0 0 Z " fill="#31ACD9" transform="translate(386,97)"/>
<path d="M0 0 C2.64 0.33 5.28 0.66 8 1 C8.33 1.99 8.66 2.98 9 4 C6.21176345 5.0326802 5.1322726 5.04509293 2.25 4.0625 C1.5075 3.711875 0.765 3.36125 0 3 C0 2.01 0 1.02 0 0 Z " fill="#3D56CE" transform="translate(168,355)"/>
<path d="M0 0 C2.31 0.33 4.62 0.66 7 1 C7 2.98 7 4.96 7 7 C6.34 7 5.68 7 5 7 C4.67 6.34 4.34 5.68 4 5 C3.01 4.67 2.02 4.34 1 4 C0.3125 1.9375 0.3125 1.9375 0 0 Z " fill="#35A2D0" transform="translate(444,129)"/>
<path d="M0 0 C2.97 0.495 2.97 0.495 6 1 C6 1.66 6 2.32 6 3 C4.68 3 3.36 3 2 3 C2 3.66 2 4.32 2 5 C0.35 5 -1.3 5 -3 5 C-2.01 3.35 -1.02 1.7 0 0 Z " fill="#4154C9" transform="translate(371,424)"/>
<path d="M0 0 C0 0.66 0 1.32 0 2 C-0.99 2 -1.98 2 -3 2 C-3 2.99 -3 3.98 -3 5 C-6.50776784 6.60355101 -9.14354879 7.22036864 -13 7 C-4.25 0 -4.25 0 0 0 Z " fill="#5563C3" transform="translate(293,409)"/>
<path d="M0 0 C-1 3 -1 3 -2.75 4 C-3.4925 4.33 -4.235 4.66 -5 5 C-6.67334039 5.98879205 -8.34151823 6.98648336 -10 8 C-10.66 7.34 -11.32 6.68 -12 6 C-10.37829621 4.99466333 -8.75252763 3.99588093 -7.125 3 C-5.76761719 2.1646875 -5.76761719 2.1646875 -4.3828125 1.3125 C-2 0 -2 0 0 0 Z " fill="#DDEDFB" transform="translate(320,351)"/>
<path d="M0 0 C0.66 0.33 1.32 0.66 2 1 C-1.83606631 4.37939175 -5.29729554 6.87258608 -10 9 C-10.66 8.34 -11.32 7.68 -12 7 C-10.04754815 5.80285445 -8.08785003 4.61751926 -6.125 3.4375 C-5.03445313 2.77621094 -3.94390625 2.11492187 -2.8203125 1.43359375 C-1.88960938 0.96050781 -0.95890625 0.48742187 0 0 Z " fill="#D8EAFB" transform="translate(342,337)"/>
<path d="M0 0 C0.99 0 1.98 0 3 0 C2.01 2.97 1.02 5.94 0 9 C-1.65 9.33 -3.3 9.66 -5 10 C-3.68 9.34 -2.36 8.68 -1 8 C-1.020625 6.865625 -1.04125 5.73125 -1.0625 4.5625 C-1 1 -1 1 0 0 Z " fill="#398CD3" transform="translate(301,208)"/>
<path d="M0 0 C0.99 0 1.98 0 3 0 C3 0.66 3 1.32 3 2 C5.31 2.33 7.62 2.66 10 3 C10.33 4.32 10.66 5.64 11 7 C6.96678237 5.78065514 3.45730521 4.44045073 0 2 C0 1.34 0 0.68 0 0 Z " fill="#50A7D4" transform="translate(381,157)"/>
<path d="M0 0 C0.33 0.66 0.66 1.32 1 2 C-0.66302124 5.32604248 -3.62976481 5.80042476 -7 7 C-8.32 6.67 -9.64 6.34 -11 6 C-7.37 4.02 -3.74 2.04 0 0 Z " fill="#356F9C" transform="translate(109,131)"/>
<path d="M0 0 C1.32 0 2.64 0 4 0 C4 0.66 4 1.32 4 2 C4.66 2 5.32 2 6 2 C5.67 3.32 5.34 4.64 5 6 C3.35 5.67 1.7 5.34 0 5 C0 3.35 0 1.7 0 0 Z " fill="#4057CD" transform="translate(152,345)"/>
<path d="M0 0 C2.31 0.66 4.62 1.32 7 2 C6.34 3.65 5.68 5.3 5 7 C4.01 6.67 3.02 6.34 2 6 C2 5.34 2 4.68 2 4 C1.34 4 0.68 4 0 4 C0 2.68 0 1.36 0 0 Z " fill="#3690D7" transform="translate(378,217)"/>
<path d="M0 0 C-0.33 0.78375 -0.66 1.5675 -1 2.375 C-2.11866511 4.84332497 -2.11866511 4.84332497 -2 7 C-2.66 7 -3.32 7 -4 7 C-4 6.01 -4 5.02 -4 4 C-4.66 4 -5.32 4 -6 4 C-6 4.66 -6 5.32 -6 6 C-6.99 5.67 -7.98 5.34 -9 5 C-2.87096774 0 -2.87096774 0 0 0 Z " fill="#4793D1" transform="translate(226,175)"/>
<path d="M0 0 C0.86625 0.2784375 0.86625 0.2784375 1.75 0.5625 C3.96665824 1.15823559 3.96665824 1.15823559 6 0.5 C8.34648094 -0.08662023 9.72600578 0.26907328 12 1 C11.67 1.66 11.34 2.32 11 3 C8.03 2.505 8.03 2.505 5 2 C5 2.66 5 3.32 5 4 C3.68 4 2.36 4 1 4 C0.67 2.68 0.34 1.36 0 0 Z " fill="#2DA7DE" transform="translate(272,97)"/>
<path d="M0 0 C2.31 0 4.62 0 7 0 C3.4912812 3.09592835 0.50802601 4.74194623 -4 6 C-4 5.01 -4 4.02 -4 3 C-2.68 3 -1.36 3 0 3 C0 2.01 0 1.02 0 0 Z " fill="#4F93CE" transform="translate(154,169)"/>
<path d="M0 0 C1.79398267 0.95399078 3.58511655 1.91334026 5.375 2.875 C6.37273437 3.40867188 7.37046875 3.94234375 8.3984375 4.4921875 C11 6 11 6 13 8 C12.01 8.33 11.02 8.66 10 9 C9.67 8.01 9.34 7.02 9 6 C7.10820797 5.3185177 7.10820797 5.3185177 5 5 C4.01 4.67 3.02 4.34 2 4 C2 3.34 2 2.68 2 2 C1.34 2 0.68 2 0 2 C0 1.34 0 0.68 0 0 Z " fill="#D3F5FD" transform="translate(363,148)"/>
<path d="M0 0 C1.67542976 0.28604898 3.34385343 0.61781233 5 1 C5.33 2.32 5.66 3.64 6 5 C3.03 4.505 3.03 4.505 0 4 C-0.33 3.01 -0.66 2.02 -1 1 C-0.67 0.67 -0.34 0.34 0 0 Z " fill="#423BB6" transform="translate(227,449)"/>
<path d="M0 0 C-0.33 1.32 -0.66 2.64 -1 4 C-3.97 4.66 -6.94 5.32 -10 6 C-4 0 -4 0 0 0 Z " fill="#577ECA" transform="translate(402,346)"/>
<path d="M0 0 C2.6875 0.875 2.6875 0.875 5 2 C5 2.66 5 3.32 5 4 C1.37 4.33 -2.26 4.66 -6 5 C-3 2 -3 2 0 0 Z " fill="#4D99D6" transform="translate(232,170)"/>
<path d="M0 0 C0 0.99 0 1.98 0 3 C-3.465 4.485 -3.465 4.485 -7 6 C-7.66 5.34 -8.32 4.68 -9 4 C-2.25 0 -2.25 0 0 0 Z " fill="#3774A5" transform="translate(130,120)"/>
<path d="M0 0 C0.99 0.33 1.98 0.66 3 1 C3.33 2.65 3.66 4.3 4 6 C3.34 5.67 2.68 5.34 2 5 C1.01 5.33 0.02 5.66 -1 6 C-1.625 4.125 -1.625 4.125 -2 2 C-1.34 1.34 -0.68 0.68 0 0 Z " fill="#2FADE0" transform="translate(345,72)"/>
<path d="M0 0 C0.66 0.33 1.32 0.66 2 1 C2 2.98 2 4.96 2 7 C1.34 7 0.68 7 0 7 C0 6.34 0 5.68 0 5 C-0.99 4.67 -1.98 4.34 -3 4 C-2.01 2.68 -1.02 1.36 0 0 Z " fill="#4239C5" transform="translate(248,457)"/>
<path d="M0 0 C0.99 0.33 1.98 0.66 3 1 C2.67 2.65 2.34 4.3 2 6 C0.35 5.67 -1.3 5.34 -3 5 C-2.01 3.35 -1.02 1.7 0 0 Z " fill="#3F6BC8" transform="translate(451,378)"/>
<path d="M0 0 C2.31 0 4.62 0 7 0 C7.33 0.99 7.66 1.98 8 3 C7.34 3 6.68 3 6 3 C5.67 3.66 5.34 4.32 5 5 C3.35 3.35 1.7 1.7 0 0 Z " fill="#4556C6" transform="translate(195,370)"/>
<path d="M0 0 C0.99 0.33 1.98 0.66 3 1 C3 1.66 3 2.32 3 3 C3.99 3 4.98 3 6 3 C6.66 4.32 7.32 5.64 8 7 C4.00499382 5.6302836 1.19990508 3.74277578 -2 1 C-1.34 0.67 -0.68 0.34 0 0 Z " fill="#46A7D0" transform="translate(361,144)"/>
<path d="M0 0 C3.59391114 1.33488128 6.75490696 2.96022723 10 5 C7 6 7 6 3.875 4.75 C1 3 1 3 0 0 Z " fill="#2C829F" transform="translate(383,92)"/>
<path d="M0 0 C0.66 0 1.32 0 2 0 C2.66 1.65 3.32 3.3 4 5 C2.35 5.33 0.7 5.66 -1 6 C-0.67 4.02 -0.34 2.04 0 0 Z " fill="#2FACDC" transform="translate(321,58)"/>
<path d="M0 0 C1.98 0 3.96 0 6 0 C6 0.99 6 1.98 6 3 C3.36 3.33 0.72 3.66 -2 4 C-1.34 2.68 -0.68 1.36 0 0 Z " fill="#33A8D3" transform="translate(288,40)"/>
<path d="M0 0 C2.31 0 4.62 0 7 0 C4.6875 2.0625 4.6875 2.0625 2 4 C1.01 3.67 0.02 3.34 -1 3 C-0.67 2.01 -0.34 1.02 0 0 Z " fill="#374E97" transform="translate(397,412)"/>
<path d="M0 0 C2.7839183 1.39195915 2.97898997 3.15575779 4 6 C1.69 5.34 -0.62 4.68 -3 4 C-2.67 3.01 -2.34 2.02 -2 1 C-1.34 0.67 -0.68 0.34 0 0 Z " fill="#4244C5" transform="translate(133,392)"/>
<path d="M0 0 C3.59391114 1.33488128 6.75490696 2.96022723 10 5 C9.01 5.495 9.01 5.495 8 6 C6.0546875 5.22265625 6.0546875 5.22265625 3.875 4.0625 C3.15054688 3.68222656 2.42609375 3.30195313 1.6796875 2.91015625 C1.12539062 2.60980469 0.57109375 2.30945313 0 2 C0 1.34 0 0.68 0 0 Z " fill="#5366BE" transform="translate(176,356)"/>
<path d="M0 0 C0.66 0.99 1.32 1.98 2 3 C-2.75 6 -2.75 6 -5 6 C-4.75 4.125 -4.75 4.125 -4 2 C-1.9375 0.75 -1.9375 0.75 0 0 Z " fill="#4D7BCA" transform="translate(356,326)"/>
<path d="M0 0 C1.98 0.66 3.96 1.32 6 2 C5.34 3.32 4.68 4.64 4 6 C3.34 6 2.68 6 2 6 C1.34 4.02 0.68 2.04 0 0 Z " fill="#4099D3" transform="translate(352,185)"/>
<path d="M0 0 C-2.97 1.65 -5.94 3.3 -9 5 C-9 4.01 -9 3.02 -9 2 C-3.375 -1.125 -3.375 -1.125 0 0 Z " fill="#DCF4FD" transform="translate(208,185)"/>
<path d="M0 0 C0.66 0.33 1.32 0.66 2 1 C-0.6598561 4.44216672 -3.90288286 4.99504674 -8 6 C-5.63404067 3.38499232 -3.13950774 1.61000397 0 0 Z " fill="#D5EDFA" transform="translate(183,156)"/>
<path d="M0 0 C0 0.66 0 1.32 0 2 C-5.75 3.125 -5.75 3.125 -8 2 C-8 1.34 -8 0.68 -8 0 C-4.71023192 -1.09658936 -3.28696233 -0.79953138 0 0 Z " fill="#339BD7" transform="translate(227,129)"/>
<path d="M0 0 C0.66 0.33 1.32 0.66 2 1 C-1.32307692 4.93846154 -1.32307692 4.93846154 -4.75 5.25 C-5.4925 5.1675 -6.235 5.085 -7 5 C-4.88437775 2.67281553 -2.94982021 1.14186589 0 0 Z " fill="#2F819C" transform="translate(199,79)"/>
<path d="M0 0 C1.32 0.66 2.64 1.32 4 2 C3.3125 3.9375 3.3125 3.9375 2 6 C-0.625 6.75 -0.625 6.75 -3 7 C-2.34 6.34 -1.68 5.68 -1 5 C0.10540926 2.21081851 0.10540926 2.21081851 0 0 Z " fill="#2C99BE" transform="translate(309,49)"/>
<path d="M0 0 C0 1.32 0 2.64 0 4 C-2.31 3.67 -4.62 3.34 -7 3 C-6.67 2.34 -6.34 1.68 -6 1 C-3.911361 0.32624548 -2.19636905 0 0 0 Z " fill="#378FD8" transform="translate(240,169)"/>
<path d="M0 0 C0 0.66 0 1.32 0 2 C-0.99 2.495 -0.99 2.495 -2 3 C-3.13350534 5.01669827 -3.13350534 5.01669827 -4 7 C-4.99 7 -5.98 7 -7 7 C-7 6.34 -7 5.68 -7 5 C-6.34 5 -5.68 5 -5 5 C-4.87625 4.360625 -4.7525 3.72125 -4.625 3.0625 C-4.41875 2.381875 -4.2125 1.70125 -4 1 C-2 0 -2 0 0 0 Z " fill="#3689BD" transform="translate(156,105)"/>
<path d="M0 0 C1.32 0.33 2.64 0.66 4 1 C2.02579865 3.52259061 1.03254358 3.9929808 -2.1875 4.6875 C-3.5796875 4.8421875 -3.5796875 4.8421875 -5 5 C-4.67 4.34 -4.34 3.68 -4 3 C-3.01 3 -2.02 3 -1 3 C-0.67 2.01 -0.34 1.02 0 0 Z " fill="#36AADA" transform="translate(272,38)"/>
<path d="M0 0 C0.99 0.33 1.98 0.66 3 1 C3.6875 3.0625 3.6875 3.0625 4 5 C0.48283697 5 -0.37121748 4.17554415 -3 2 C-2.01 2 -1.02 2 0 2 C0 1.34 0 0.68 0 0 Z " fill="#4150CB" transform="translate(293,409)"/>
<path d="M0 0 C-6.75 4 -6.75 4 -9 4 C-9 3.34 -9 2.68 -9 2 C-8.34 2 -7.68 2 -7 2 C-7 1.34 -7 0.68 -7 0 C-2.25 -1.125 -2.25 -1.125 0 0 Z " fill="#354B8C" transform="translate(435,395)"/>
<path d="M0 0 C3.375 0.25 3.375 0.25 7 1 C8.4375 3.0625 8.4375 3.0625 9 5 C5.9168649 3.80100302 2.93720508 2.52299523 0 1 C0 0.67 0 0.34 0 0 Z " fill="#37398A" transform="translate(95,376)"/>
<path d="M0 0 C2.97 1.65 5.94 3.3 9 5 C7.68 5.33 6.36 5.66 5 6 C2.25 4.1875 2.25 4.1875 0 2 C0 1.34 0 0.68 0 0 Z " fill="#586AC3" transform="translate(143,336)"/>
<path d="M0 0 C0.66 0.33 1.32 0.66 2 1 C0.8125 3 0.8125 3 -1 5 C-3.6875 5.25 -3.6875 5.25 -6 5 C-4.06745228 2.9754262 -2.36841312 1.57894208 0 0 Z " fill="#5698D2" transform="translate(213,181)"/>
<path d="M0 0 C3.82097239 0.53069061 6.06171403 1.49701566 9 4 C8.01 4.495 8.01 4.495 7 5 C4.5249829 3.88568235 2.32116581 2.41849022 0 1 C0 0.67 0 0.34 0 0 Z " fill="#4FACD2" transform="translate(312,118)"/>
<path d="M0 0 C0 0.66 0 1.32 0 2 C-4.15267176 5.11450382 -4.15267176 5.11450382 -7.3125 4.6875 C-7.869375 4.460625 -8.42625 4.23375 -9 4 C-2.25 0 -2.25 0 0 0 Z " fill="#D3F3FB" transform="translate(277,103)"/>
<path d="M0 0 C-0.33 0.99 -0.66 1.98 -1 3 C-2.84765625 3.73046875 -2.84765625 3.73046875 -5.0625 4.1875 C-5.79597656 4.34605469 -6.52945313 4.50460938 -7.28515625 4.66796875 C-8.13400391 4.83232422 -8.13400391 4.83232422 -9 5 C-7.16182974 1.32365947 -3.97378668 0 0 0 Z " fill="#2E7794" transform="translate(210,74)"/>
<path d="M0 0 C0.66 0.33 1.32 0.66 2 1 C0.87926138 1.83905565 -0.24674547 2.67107831 -1.375 3.5 C-2.00148437 3.9640625 -2.62796875 4.428125 -3.2734375 4.90625 C-5 6 -5 6 -7 6 C-7 5.01 -7 4.02 -7 3 C-4.69631264 1.93347808 -2.35981813 0.93578995 0 0 Z " fill="#2EA9DB" transform="translate(228,66)"/>
</svg>
